<?xml version="1.0" encoding="UTF-8"?>
<svg id="Layer_1" xmlns="http://www.w3.org/2000/svg" version="1.1" viewBox="0 0 49 54.87">
  <!-- Generator: Adobe Illustrator 29.8.1, SVG Export Plug-In . SVG Version: 2.1.1 Build 2)  -->
  <defs>
    <style>
      .st0 {
        fill: #d9ca89;
      }
    </style>
  </defs>
  <path class="st0" d="M36.21,5.93c-1.07-1.94-2.6-3.41-4.6-4.42-2-1.01-4.38-1.52-7.13-1.52-4.14,0-7.39,1.13-9.76,3.4-2.36,2.26-3.54,5.4-3.54,9.42s1.18,7.15,3.54,9.42c2.36,2.27,5.61,3.4,9.76,3.4s7.4-1.13,9.77-3.4c2.37-2.27,3.55-5.41,3.55-9.42,0-2.65-.53-4.94-1.6-6.88Z"/>
  <path class="st0" d="M49,54.87c0-4.88-.98-9.1-2.95-12.66s-4.79-6.28-8.46-8.13c-3.68-1.86-8.06-2.79-13.12-2.79-7.63,0-13.61,2.08-17.95,6.25C2.17,41.7,0,47.48,0,54.87h49Z"/>
</svg>