<?xml version="1.0" encoding="UTF-8"?>
<svg id="Layer_1" xmlns="http://www.w3.org/2000/svg" version="1.1" viewBox="0 0 115.38 115.38">
  <!-- Generator: Adobe Illustrator 29.8.1, SVG Export Plug-In . SVG Version: 2.1.1 Build 2)  -->
  <defs>
    <style>
      .st0 {
        stroke: #d9c989;
      }

      .st0, .st1 {
        fill: none;
        stroke-miterlimit: 10;
        stroke-width: 3px;
      }

      .st1 {
        stroke: #bf883c;
      }
    </style>
  </defs>
  <polygon class="st1" points="1.5 40.98 1.5 1.5 40.98 1.5 40.98 1.5 40.98 40.98 1.5 40.98 1.5 40.98"/>
  <polyline class="st1" points="1.5 115.38 1.5 80.46 21.24 60.72 21.24 21.24 60.72 21.24 80.46 1.5 115.38 1.5"/>
  <polyline class="st0" points="12.69 115.38 12.69 12.69 115.38 12.69"/>
  <polygon class="st1" points="305.51 40.98 305.51 1.5 344.99 1.5 344.99 1.5 344.99 40.98 305.51 40.98 305.51 40.98"/>
  <polyline class="st1" points="305.51 115.38 305.51 80.46 325.25 60.72 325.25 21.24 364.73 21.24 384.47 1.5 419.39 1.5"/>
  <polyline class="st0" points="315.38 115.38 315.38 11.37 419.39 11.37"/>
</svg>