<?xml version="1.0" encoding="UTF-8"?>
<svg id="Layer_1" xmlns="http://www.w3.org/2000/svg" version="1.1" viewBox="0 0 424.1 444">
  <!-- Generator: Adobe Illustrator 29.4.0, SVG Export Plug-In . SVG Version: 2.1.0 Build 152)  -->
  <defs>
    <style>
      .st0 {
        fill: #d9ca89;
      }

      .st1 {
        fill: #bf883c;
      }
    </style>
  </defs>
  <path d="M174.6,441.1l-14.7-47-1.5-.5c-25-7.9-48.6-21.4-68-39.4l-1.1-1.1-48.2,10.8L3.7,299.1l33.4-36.3-.4-1.5c-2.9-13-4.4-26.2-4.4-39.3s1.5-26.3,4.4-39.3l.4-1.5L3.7,144.9l37.5-64.8,48.2,10.8,1.1-1.1c19.4-17.9,43-31.5,68-39.4l1.5-.5,14.7-47h74.9l14.7,47,1.5.5c25,7.9,48.6,21.4,68,39.4l1.1,1.1,48.2-10.8,37.5,64.8-33.4,36.3.4,1.5c2.9,13,4.4,26.2,4.4,39.3s-1.5,26.3-4.4,39.3l-.4,1.5,33.4,36.3-37.5,64.9-48.2-10.8-1.1,1.1c-19.5,17.9-43,31.5-68,39.4l-1.5.5-14.7,47h-74.9Z"/>
  <path class="st1" d="M247.3,5.9l13.6,43.5.9,3,3,.9c24.6,7.7,47.7,21.1,66.9,38.8l2.3,2.1,3-.6,44.6-10,35.3,61.1-30.9,33.6-2.1,2.3.6,3c2.8,12.8,4.3,25.8,4.3,38.7s-1.5,25.9-4.3,38.7l-.6,3,2.1,2.3,30.9,33.6-35.3,61.1-44.6-10-3-.6-2.3,2.1c-19.1,17.6-42.3,31-66.9,38.8l-3,.9-.9,3-13.6,43.5h-70.5l-13.6-43.5-.9-3-3-.9c-24.6-7.7-47.7-21.1-66.9-38.8l-2.3-2.1-3,.6-44.6,10-35.3-61.1,30.9-33.6,2.1-2.3-.6-3c-2.8-12.8-4.3-25.8-4.3-38.7s1.5-25.9,4.3-38.6l.6-3-2.1-2.3-30.9-33.6,35.3-61.1,44.6,10,3,.6,2.3-2.1c19.1-17.6,42.3-31,66.9-38.8l3-.9.9-3,13.6-43.5h70.5M251.7,0h-79.2l-14.9,47.6c-26,8.2-49.6,22-69.1,40.1l-48.9-11L0,145.3l33.9,36.7c-2.9,12.9-4.4,26.2-4.4,39.9s1.6,27.1,4.4,39.9L0,298.7l39.6,68.6,48.9-11c19.6,18,43.1,31.9,69.1,40.1l14.9,47.6h79.2l14.9-47.6c26-8.2,49.6-22,69.1-40.1l48.9,11,39.6-68.6-33.9-36.7c2.9-12.9,4.4-26.2,4.4-39.9s-1.6-27.1-4.4-39.9l33.9-36.7-39.6-68.6-48.9,11c-19.6-18-43.1-31.9-69.1-40.1L251.7,0h0Z"/>
  <path class="st0" d="M212.1,377.2c-85.5,0-155.2-69.6-155.2-155.2S126.5,66.8,212.1,66.8s155.2,69.6,155.2,155.2-69.6,155.2-155.2,155.2Z"/>
  <path d="M289,222c0,42.9-6.8,76.3-20.4,100.4-13.6,24-32.4,36-56.5,36s-42.9-12.1-56.5-36c-13.6-24-20.4-57.5-20.4-100.4s6.8-76.3,20.4-100.4c13.6-24,32.4-36,56.5-36s42.9,12.1,56.5,36c13.6,24,20.4,57.5,20.4,100.4Z"/>
  <polygon class="st0" points="224.9 222 212.1 139.1 199.2 222 212.1 305 224.9 222"/>
</svg>