<?xml version="1.0" encoding="UTF-8"?>
<svg id="Layer_1" xmlns="http://www.w3.org/2000/svg" version="1.1" viewBox="0 0 412.5 135.5">
  <!-- Generator: Adobe Illustrator 29.4.0, SVG Export Plug-In . SVG Version: 2.1.0 Build 152)  -->
  <defs>
    <style>
      .st0 {
        fill: #22211c;
      }

      .st1 {
        fill: #be873b;
      }

      .st2 {
        fill: #d8c988;
      }
    </style>
  </defs>
  <polygon class="st0" points="314.9 100.5 294.6 120.7 117.8 120.7 97.5 100.5 117.8 80.2 294.6 80.2 314.9 100.5"/>
  <polygon class="st0" points="408.6 18.8 389.3 99 317.7 99 295.9 77.1 116.6 77.1 94.8 99 23.1 99 3.8 18.8 171.6 18.8 187.4 3 225 3 240.8 18.8 408.6 18.8"/>
  <g>
    <polygon class="st2" points="111.9 105.3 109.3 107.9 101.8 100.5 109.3 93 111.9 95.7 107.1 100.5 111.9 105.3"/>
    <rect class="st2" x="112.2" y="98.6" width="3.8" height="3.8" transform="translate(-37.6 110.3) rotate(-45.1)"/>
    <polygon class="st2" points="114 93.5 111.4 90.9 117.3 84.9 117.3 90.2 114 93.5"/>
    <polygon class="st2" points="114 107.4 117.3 110.7 117.3 116 111.4 110 114 107.4"/>
    <polygon class="st2" points="296.3 105.3 292.1 109.4 292.1 117.7 120.3 117.7 120.3 109.4 116.2 105.3 121 100.5 116.2 95.7 120.3 91.5 120.3 83.2 292.1 83.2 292.1 91.5 296.3 95.7 291.5 100.5 296.3 105.3"/>
    <polygon class="st2" points="298.4 93.5 295.1 90.2 295.1 84.9 301.1 90.9 298.4 93.5"/>
    <polygon class="st2" points="298.4 107.4 301.1 110 295.1 116 295.1 110.7 298.4 107.4"/>
    <polygon class="st2" points="295.7 100.5 298.4 97.8 301.1 100.5 298.4 103.1 295.7 100.5"/>
    <polygon class="st2" points="310.7 100.5 303.2 107.9 300.5 105.3 305.3 100.5 300.5 95.7 303.2 93 310.7 100.5"/>
  </g>
  <path class="st1" d="M242.1,15.8L226.3,0h-40.1l-15.9,15.8H0l20.8,86.1h74l21.8,21.8h179.3l21.8-21.8h74l20.8-86.1h-170.4ZM294.6,120.7H117.8l-20.3-20.3,20.3-20.3h176.8l20.3,20.3-20.3,20.3ZM389.3,99h-71.6l-21.8-21.8H116.6l-21.8,21.8H23.1L3.8,18.8h167.8l15.9-15.8h37.6l15.8,15.8h167.8l-19.3,80.1Z"/>
  <g>
    <g>
      <path class="st0" d="M210.1,91.5h1c.3,0,.5,0,.7.2.2.2.3.3.3.6v11.3c0,1.8-.5,3.3-1.6,4.4-1.1,1.1-2.4,1.7-4.2,1.7s-3.1-.6-4.1-1.7c-1-1.2-1.5-2.7-1.5-4.7v-10.9c0-.3,0-.4.3-.6.2-.2.4-.2.7-.2h1v-1.4h-6.9v1.4h1c.2,0,.4,0,.5.1.3.2.5.4.5.8v11.3c0,2.4.8,4.3,2.4,5.8,1.6,1.5,3.6,2.2,6.1,2.2s4.5-.7,6-2.2c1.5-1.5,2.3-3.4,2.3-5.8v-11.3c0-.2,0-.4.3-.6.2-.2.4-.3.7-.3h1v-1.4h-6.4v1.4Z"/>
      <path class="st0" d="M149.4,91.5h.8c.3,0,.4.1.5.2.2.2.2.3.2.4,0,.2,0,.3,0,.5l-5.7,13.8-5.5-13.8c0-.2,0-.3,0-.5s0-.2.2-.4c0,0,.1-.2.5-.2h.8v-1.4h-7.6v1.4h.8c.4,0,.7.1,1.1.4.4.2.7.6.9,1.1l8.2,18.7h1.2v-.6c0-.1,0-.7,1-2.7l6.9-15.5c.2-.5.5-.9.9-1.1.4-.2.7-.4,1.1-.4h.8v-1.4h-6.9v1.4Z"/>
      <path class="st0" d="M182.6,109.5c-.4-.2-.7-.6-.9-1.1l-7.8-18.7h-1.2v.6c0,.2,0,.7-1,2.7l-6.5,15.4c-.2.5-.6.9-.9,1.1-.4.2-.7.4-1.1.4h-.8v1.4h6.9v-1.4h-.8c-.3,0-.4-.1-.5-.2-.2-.2-.2-.3-.2-.4,0-.2,0-.3,0-.5l1.8-4.6h7l1.7,4.5c0,.2,0,.3,0,.5s0,.2-.2.4c0,0-.1.2-.5.2h-.8v1.4h7.6v-1.4h-.8c-.4,0-.8-.1-1.1-.4ZM170.4,102.3l2.8-7.1,2.7,7.1h-5.4Z"/>
      <path class="st0" d="M245.7,105.8c-.5,1.2-1,2-1.7,2.6-.6.5-1.6.8-2.9.8h-4.9v-16.6c0-.2,0-.4.2-.6.3-.4.6-.6,1.1-.6h.9v-1.4h-7.4v1.4h.9c.4,0,.6.1.9.4.3.3.4.5.4.9v15.9c0,.4-.1.7-.4.9-.3.3-.5.4-.9.4h-.9v1.4h14.2l2.1-5.8h-1.5v.4Z"/>
      <path class="st0" d="M278.3,89.6s-.2,0-1,.3c-.6.1-1.3.2-2.2.2h-12.3c-.6,0-1.2,0-1.9-.2-.8-.1-1.2-.2-1.4-.3l-.8-.3v5.1h1.4v-1.1c0-.3.1-.6.3-.8.2-.2.5-.3.8-.4h6.2v16.6c0,.3-.1.6-.4.9-.3.2-.5.4-.9.4h-.9v1.4h7.4v-1.4h-.9c-.4,0-.6-.1-.9-.4-.2-.2-.4-.5-.4-.9v-16.6h6.2c.3,0,.5.1.8.4.2.2.3.5.3.8v1h1.4c0,.1,0-4.9,0-4.9l-.8.3Z"/>
    </g>
    <g>
      <circle class="st0" cx="188.8" cy="101" r="1.4"/>
      <circle class="st0" cx="223.4" cy="101" r="1.4"/>
    </g>
    <g>
      <circle class="st0" cx="158.4" cy="101" r="1.4"/>
      <circle class="st0" cx="253.9" cy="101" r="1.4"/>
    </g>
  </g>
  <path class="st2" d="M221.3,55c0,4.3-1.5,7.6-4.6,9.7-3.1,2.1-7.2,3.2-12.3,3.2s-5.6-.3-7.9-1-3.9-1.5-4.9-2.5c-.3-.8-.5-1.6-.5-2.6s0-1.8.2-2.7c.4-2.1,1.1-3.8,2-5h.5c0,.2,0,.4,0,.7,0,2.7,1,5,3.1,7.1,2.1,2.1,5,3.1,8.6,3.1s4.3-.5,5.6-1.5c1.3-1,2-2.2,2-3.5s-.4-2.4-1.3-3.4c-.9-.9-2.4-1.9-4.4-2.8l-8.8-4.1c-2.5-1.1-4.3-2.7-5.4-4.7-.9-1.6-1.3-3.3-1.3-5.2,0-3.9,1.3-6.8,3.9-8.8,2.2-1.7,5.1-2.5,8.7-2.5s5.4.2,9.1.5h4.2l-1.2,8.8h-.5c0-2-.8-3.6-2.3-4.8-1.5-1.2-3.5-1.8-5.9-1.8s-4.2.4-5.5,1.2c-1.3.8-2,1.9-2.1,3.3-.1,1.7.9,3.1,3.2,4.3.4.2.9.4,1.6.7l10.1,4.7c4.2,1.9,6.2,5,6.2,9.4ZM225.9,66.7c.9,0,1.7-.3,2.4-1,.7-.7,1-1.5,1-2.4v-29.8c0-1.1-.5-2.1-1.5-2.7-.6-.4-1.2-.6-2-.6h-.7v-.5h23.8c1.5,0,2.9-.1,4.1-.4,1.2-.3,2-.4,2.3-.6v11.1h-.5v-.4c0-2.9-1-4.9-3.1-6-1-.6-2.2-.9-3.6-.9h-7.8v15h5.9c1.7,0,3.1-.6,4.2-1.7,1.1-1.1,1.6-2.5,1.6-4.2v-.2h.5v15h-.5v-.3c0-1.7-.5-3.1-1.6-4.2-1.1-1.1-2.5-1.7-4.1-1.7h-5.9v14.5h6.6c2.6,0,4.9-.9,6.9-2.6,2-1.7,3.4-4.1,4.3-7.2h.5l-2,12.5h-31.5v-.5h.7ZM261.8,66.7c.9,0,1.7-.3,2.4-1,.7-.7,1-1.5,1-2.4v-29.8c0-1.1-.5-2.1-1.5-2.7-.6-.4-1.2-.6-2-.6h-.7v-.5h23.8c1.5,0,2.9-.1,4.1-.4,1.2-.3,2-.4,2.3-.6v11.1h-.5v-.4c0-2.9-1-4.9-3.1-6-1-.6-2.2-.9-3.6-.9h-7.8v15h5.9c1.7,0,3.1-.6,4.2-1.7,1.1-1.1,1.6-2.5,1.6-4.2v-.2h.5v15h-.5v-.3c0-1.7-.5-3.1-1.6-4.2-1.1-1.1-2.5-1.7-4.1-1.7h-5.9v14.5h6.6c2.6,0,4.9-.9,6.9-2.6,2-1.7,3.4-4.1,4.3-7.2h.5l-2,12.5h-31.5v-.5h.7ZM337.6,36.7c.1-.2.2-.4.2-.6,0-.2,0-.3,0-.5,0-.5-.2-1-.7-1.6-.5-.6-.7-1.2-.7-1.9s.3-1.7,1-2.1c.4-.3.9-.5,1.3-.5,1.4,0,2.4.6,2.9,1.7.3.7.4,1.4.4,2.2s-.1,1.4-.4,2c-.7,1.4-1.6,2.2-2.8,2.7-.4.1-.8.2-1.1.2s-.6,0-.9,0v-.4c.4-.2.7-.5,1-1ZM386.8,67.3c0,6.4-2.3,11.1-6.8,14.2-4.5,3.1-10.5,4.7-18.1,4.7s-8.2-.5-11.5-1.5c-3.3-1-5.7-2.2-7.2-3.7-.5-1.2-.7-2.4-.7-3.7s.1-2.6.3-3.9c.6-3.1,1.6-5.5,2.9-7.3h.7c0,.3,0,.7,0,1,0,3.9,1.5,7.4,4.6,10.5s7.3,4.6,12.6,4.6,6.3-.7,8.2-2.2c1.9-1.5,2.9-3.2,2.9-5.1s-.7-3.6-2-4.9c-1.3-1.4-3.4-2.7-6.4-4.1l-12.9-6c-3.6-1.6-6.3-3.9-7.9-6.9-1.3-2.3-2-4.9-2-7.7,0-5.7,1.9-10,5.8-12.9,3.2-2.4,7.5-3.6,12.8-3.6s7.9.3,13.3.8h6.2l-1.7,12.9h-.8c0-2.9-1.1-5.2-3.4-7-2.3-1.8-5.1-2.7-8.6-2.7s-6.2.6-8.1,1.8c-1.9,1.2-3,2.8-3.1,4.8-.2,2.5,1.4,4.6,4.7,6.3.6.3,1.3.7,2.3,1l14.8,6.9c6.1,2.8,9.2,7.4,9.2,13.7ZM331.6,35.4c.6,1.3.9,2.6.9,3.9s-.1,2.5-.4,3.6c-.3,1-.7,2-1.3,3-1.3,2.2-3.6,3.5-6.8,4,1.4.4,2.7,1.1,3.8,2.1,1.2,1,2.3,2.4,3.3,4.2,2.7,4.6-.9,10.4,2.8,10.4v.5h-3c-9.1,0-11.2-5.6-12.4-9.2-.3-1-.6-2.1-.8-3.3-.2-1.1-.4-2-.6-2.5-.2-.5-.3-1-.6-1.5-.2-.4-.4-.8-.7-1-.4-.4-.9-.8-1.5-1v-.5h.9c2.1,0,3.6-1,4.7-2.9.5-1,.9-2.1,1-3.3.1-1.2.2-1.9.2-2.2v-.5c-.3-4.7-2.3-7.1-6.1-7.1h-2.4v31c0,.9.3,1.7,1,2.4.7.7,1.5,1,2.4,1h.6v.5h-19.3v-.5h.7c.9,0,1.7-.3,2.4-1,.7-.6,1-1.4,1-2.4v-29.9c0-1.3-.6-2.3-1.7-3-.5-.3-1.1-.4-1.7-.4h-.7v-.5h21c7,0,11.5,2,13.4,5.9ZM118.2,30.1h-.4c-1.6,0-2.9,1-3.8,2.9l-10.7,27.5c-1.6,4-2.5,6.7-2.6,8h-.4l-14.6-35.5c-1-2-2.2-3-3.9-3h-.4v-.5h17.4v.5h-.4c-.6,0-1.1.2-1.4.7-.3.5-.5.9-.5,1.4s0,.9.2,1.3l6.6,18.5,6.9-18.5c.2-.5.3-.9.3-1.3s-.2-.9-.5-1.3c-.3-.5-.8-.7-1.5-.7h-.4v-.5h10.3v.5ZM117.2,66.7c.9,0,1.7-.3,2.4-1,.7-.7,1-1.5,1-2.4v-29.8c0-1.1-.5-2.1-1.5-2.7-.6-.4-1.2-.6-2-.6h-.7v-.5h23.8c1.5,0,2.9-.1,4.1-.4,1.2-.3,2-.4,2.3-.6v11.1h-.5v-.4c0-2.9-1-4.9-3.1-6-1-.6-2.2-.9-3.6-.9h-7.8v15h5.9c1.7,0,3.1-.6,4.2-1.7,1.1-1.1,1.6-2.5,1.6-4.2v-.2h.5v15h-.5v-.3c0-1.7-.5-3.1-1.6-4.2-1.1-1.1-2.5-1.7-4.1-1.7h-5.9v14.5h6.6c2.6,0,4.9-.9,6.9-2.6,2-1.7,3.4-4.1,4.3-7.2h.5l-2,12.5h-31.5v-.5h.7ZM185.1,35.4c.6,1.3.9,2.6.9,3.9s-.1,2.5-.4,3.6c-.3,1-.7,2-1.3,3-1.3,2.2-3.6,3.5-6.8,4,1.4.4,2.7,1.1,3.8,2.1,1.2,1,2.3,2.4,3.3,4.2,2.7,4.6-.9,10.4,2.8,10.4v.5h-3c-9.1,0-11.2-5.6-12.4-9.2-.3-1-.6-2.1-.8-3.3-.2-1.1-.4-2-.6-2.5-.2-.5-.3-1-.6-1.5-.2-.4-.4-.8-.7-1-.4-.4-.9-.8-1.5-1v-.5h.9c2.1,0,3.6-1,4.7-2.9.5-1,.9-2.1,1-3.3.1-1.2.2-1.9.2-2.2v-.5c-.3-4.7-2.3-7.1-6.1-7.1h-2.4v31c0,.9.3,1.7,1,2.4.7.7,1.5,1,2.4,1h.6v.5h-19.3v-.5h.7c.9,0,1.7-.3,2.4-1,.7-.6,1-1.4,1-2.4v-29.9c0-1.3-.6-2.3-1.7-3-.5-.3-1.1-.4-1.7-.4h-.7v-.5h21c7,0,11.5,2,13.4,5.9ZM55.5,28.8c6.2,0,11.5,1.1,16,3.4,4.5,2.3,7.9,5.6,10.3,9.9,2.4,4.3,3.6,9.5,3.6,15.4,0,9-2.7,16-8,21.1-5.3,5.1-12.6,7.6-21.9,7.6s-16.6-2.5-21.9-7.6c-5.3-5.1-7.9-12.1-7.9-21.1s2.6-16,7.9-21.1c5.3-5.1,12.6-7.6,21.9-7.6ZM45.3,75.7c2.5,4.4,5.9,6.6,10.3,6.6s7.8-2.2,10.3-6.6c2.5-4.4,3.7-10.4,3.7-18.2s-1.2-13.9-3.7-18.2c-2.5-4.4-5.9-6.6-10.3-6.6s-7.8,2.2-10.3,6.6c-2.5,4.4-3.7,10.4-3.7,18.2s1.2,13.9,3.7,18.2ZM57.9,57.5l-2.3-15.1-2.3,15.1,2.3,15.1,2.3-15.1Z"/>
  <g>
    <path class="st1" d="M207.1,18.7c.2,0,.4,0,.5-.2.1-.1.2-.3.2-.5v-3.1h-3.2v3c0,.3.1.5.4.7.1,0,.2,0,.4,0h.2c0,.1-4.3.1-4.3.1h0c0-.1.2-.1.2-.1.2,0,.4,0,.5-.2s.2-.3.2-.5v-6.7c0-.2,0-.4-.2-.5-.1-.1-.3-.2-.5-.2h-.2c0-.1,4.3-.1,4.3-.1h0c0,.1-.2.1-.2.1-.2,0-.4,0-.5.2-.1.1-.2.3-.2.5v3.1h3.2v-3.1c0-.2,0-.4-.2-.5-.1-.1-.3-.2-.5-.2h-.2c0-.1,4.3-.1,4.3-.1h0c0,.1-.2.1-.2.1-.3,0-.5.1-.7.4,0,.1-.1.2-.1.4v6.7c0,.2,0,.4.2.5.1.1.3.2.5.2h.2c0,.1-4.3.1-4.3.1h0c0-.1.2-.1.2-.1Z"/>
    <g>
      <path class="st1" d="M194.9,10.9v7c0,.2,0,.4.2.5.1.1.3.2.5.2h.2c0,.1-4.3.1-4.3.1h0c0-.1.2-.1.2-.1.2,0,.4,0,.5-.2.1-.1.2-.3.2-.5v-7h-.9c-.5,0-.9.2-1.1.4-.3.3-.4.7-.4,1.1h0c0,0-.1,0-.1,0v-2.5c.1,0,.3,0,.6.1.3,0,.6,0,.8,0h4.7c.2,0,.5,0,.8,0s.5,0,.6-.1v2.5h-.1c0-.7-.2-1.2-.7-1.5-.2-.1-.5-.2-.8-.2h-.8Z"/>
      <path class="st1" d="M215.2,18.7c.2,0,.4,0,.5-.2s.2-.3.2-.5v-6.7c0-.3-.1-.5-.3-.6-.1,0-.3-.1-.4-.1h-.2c0-.1,5.3-.1,5.3-.1.3,0,.7,0,.9,0,.3,0,.4-.1.5-.1v2.5h-.1c0-.7-.2-1.2-.7-1.4-.2-.1-.5-.2-.8-.2h-1.7v3.4h1.3c.4,0,.7-.1.9-.4.2-.2.4-.6.4-.9h0s.1,0,.1,0v3.4h-.1c0-.4-.1-.7-.4-1-.2-.2-.6-.4-.9-.4h-1.3v3.2h1.5c.6,0,1.1-.2,1.6-.6.5-.4.8-.9,1-1.6h.1l-.5,2.8h-7.1c0-.1.2-.1.2-.1Z"/>
    </g>
  </g>
  <g>
    <path class="st2" d="M134.8,135.4s0,0,0,0c0,0,0-.1.3-.2.2,0,.4-.1.4-.2,0-.1.1-.3.1-.4v-1.2c0-.2,0-.5-.2-.8l-1-1.6c-.1-.2-.2-.3-.3-.4-.1-.1-.2-.2-.4-.2,0,0-.1,0-.2,0,0,0,0,0,0-.1s0,0,0,0c0,0,0,0,.1,0,.1,0,.3,0,.6,0,.2,0,.4,0,.6,0s.3,0,.5,0c.2,0,.3,0,.4,0s.1,0,.2,0,0,0,0,0c0,0,0,.1-.2.2-.1,0-.2,0-.3.1,0,0,0,0,0,.2s0,.2,0,.3l.8,1.4c0,.1.1.2.2.2s0,0,0,0c0,0,0,0,.1-.1.2-.4.5-.8.7-1.3,0-.1.1-.3.1-.4,0-.2-.1-.3-.4-.3,0,0-.1,0-.2,0,0,0,0,0,0-.1s0,0,0,0c0,0,.1,0,.2,0,.1,0,.2,0,.4,0,.2,0,.3,0,.4,0s.2,0,.2,0c0,0,.2,0,.2,0,.1,0,.3,0,.4,0s.2,0,.2.1,0,0,0,0-.1,0-.2,0c-.1,0-.3.1-.4.2-.1,0-.2.2-.3.4l-.2.3-.8,1.2c0,.1-.1.3-.2.4s0,.2,0,.4v1.2c0,.2,0,.3.1.4s.2.2.5.2c0,0,.2,0,.2,0,0,0,0,0,0,.1s0,0,0,0c0,0,0,0-.2,0-.1,0-.3,0-.6,0,0,0-.1,0-.2,0,0,0-.2,0-.3,0s-.3,0-.5,0c-.3,0-.5,0-.6,0s-.1,0-.2,0Z"/>
    <path class="st2" d="M140.1,135.1c-.4-.2-.8-.5-1-1s-.4-.9-.4-1.4.1-1,.3-1.4c.2-.4.6-.8,1-1.1.4-.3,1-.4,1.6-.4s1,.1,1.4.3c.4.2.8.5,1,1,.3.4.4.9.4,1.4s-.1,1-.3,1.4c-.2.4-.6.8-1,1.1-.4.3-1,.4-1.6.4s-1-.1-1.4-.3ZM142.8,134.6c.3-.4.4-.9.4-1.5s0-.9-.2-1.4c-.1-.4-.3-.8-.6-1-.3-.3-.6-.4-1-.4s-.9.2-1.2.6c-.3.4-.4.9-.4,1.5s0,.9.2,1.4c.1.4.3.8.6,1,.3.3.6.4,1,.4s.9-.2,1.2-.6Z"/>
    <path class="st2" d="M146,134.9c-.4-.4-.6-.9-.6-1.6v-2.4c0-.2,0-.3-.1-.4s-.2-.2-.3-.2c-.2,0-.2,0-.2-.2s0,0,0,0,0,0,.2,0c.1,0,.3,0,.5,0,.2,0,.4,0,.5,0s.3,0,.5,0h.5c.1,0,.2,0,.2,0s0,0,0,0,0,0-.1,0c0,0-.1,0-.1,0,0,0-.2.1-.2.2,0,.1,0,.2,0,.4v2.2c0,.6.1,1,.4,1.3.3.3.6.4,1.1.4s.9-.2,1.2-.5c.3-.3.4-.8.4-1.4s0-1.3,0-1.6c0-.3,0-.6-.1-.7,0-.2-.2-.3-.3-.3,0,0,0,0-.1,0,0,0,0,0-.1,0,0,0,0,0,0,0,0,0,0-.1.2-.1h.4c0,0,.2,0,.3,0s.2,0,.4,0h.4c.1,0,.2,0,.2,0s0,.1-.2.2-.3.1-.3.2c0,.1-.1.3-.1.5,0,.6,0,1.2,0,1.7,0,.2,0,.4,0,.6,0,.4-.1.8-.3,1.2-.2.3-.5.6-.8.8-.3.2-.7.3-1.1.3-.7,0-1.3-.2-1.7-.6Z"/>
    <path class="st2" d="M155.2,135.4c-.2-.1-.4-.3-.6-.5-.2-.3-.4-.6-.6-.8s-.3-.5-.5-.9c0-.1-.2-.2-.3-.3-.1,0-.2,0-.4-.1h0c0,0,0,0,0,.2v1.5c0,.2,0,.3.1.4,0,0,.2.2.5.2,0,0,.1,0,.2,0,0,0,0,0,0,.1,0,0,0,.1-.2.1-.2,0-.4,0-.6,0-.2,0-.4,0-.5,0-.2,0-.4,0-.6,0,0,0-.2,0-.3,0-.1,0-.2,0-.3,0s0,0-.1,0c0,0,0,0,0,0,0,0,0-.1.2-.2.2,0,.4-.1.4-.2,0,0,.1-.2.1-.4v-3.6c0-.2,0-.3,0-.4,0,0,0-.1-.1-.2,0,0-.2,0-.3-.1,0,0-.1,0-.2,0,0,0,0,0,0-.1,0,0,0-.1.2-.1.2,0,.4,0,.6,0,.2,0,.3,0,.4,0s.2,0,.2,0c0,0,.1,0,.2,0,.2,0,.4,0,.7,0,.6,0,1.1.1,1.5.3s.5.6.5,1,0,.6-.3.8c-.2.2-.4.4-.7.5,0,0,0,0,0,0,0,0,0,0,0,0,.3.4.6.8.8,1.1.2.3.5.6.8.8.2.1.3.2.5.3.2,0,.4,0,.6,0s.1,0,.1.1c0,.2,0,.3-.2.3-.2,0-.4.1-.6.1s-.6,0-.8-.2ZM153.8,132.3c.2-.2.3-.5.3-.8s0-.7-.2-.9c-.2-.2-.4-.3-.8-.3s-.2,0-.3.2c0,.1,0,.3,0,.6,0,.2,0,.6,0,1.2s0,.2,0,.2c0,0,.1,0,.3,0,.3,0,.6-.1.8-.3Z"/>
    <path class="st2" d="M160.5,135.1c-.5-.2-.8-.6-1.1-1-.3-.4-.4-.9-.4-1.4s.1-1,.4-1.4c.3-.4.7-.8,1.2-1,.5-.3,1.1-.4,1.7-.4s.5,0,.7,0c.2,0,.5.1.8.2.1,0,.2.1.2.2,0,.4,0,.7,0,1,0,0,0,0,0,.1,0,0,0,0-.1,0s0,0-.1,0c0,0,0,0,0,0,0-.2-.1-.3-.2-.5,0-.1-.1-.2-.2-.3-.3-.2-.7-.3-1.2-.3s-.7.1-1,.3c-.3.2-.5.5-.7.8s-.2.7-.2,1.1,0,.9.2,1.3c.2.4.4.7.7.9.3.2.7.3,1.1.3s.7,0,1-.3c.3-.2.5-.4.6-.8,0,0,0,0,0,0,0,0,0,0,0,0s0,0,0,0,0,0,0,0c0,0,0,.2,0,.4,0,.2,0,.3-.1.5,0,0,0,.1,0,.1,0,0,0,0-.1,0-.2,0-.4.2-.7.2-.3,0-.6,0-.9,0-.5,0-1.1-.1-1.5-.3Z"/>
    <path class="st2" d="M166.2,135.1c-.4-.2-.8-.5-1-1s-.4-.9-.4-1.4.1-1,.3-1.4c.2-.4.6-.8,1-1.1.4-.3,1-.4,1.6-.4s1,.1,1.4.3c.4.2.8.5,1,1,.3.4.4.9.4,1.4s-.1,1-.3,1.4c-.2.4-.6.8-1,1.1-.4.3-1,.4-1.6.4s-1-.1-1.4-.3ZM168.9,134.6c.3-.4.4-.9.4-1.5s0-.9-.2-1.4c-.1-.4-.3-.8-.6-1-.3-.3-.6-.4-1-.4s-.9.2-1.2.6c-.3.4-.4.9-.4,1.5s0,.9.2,1.4c.1.4.3.8.6,1,.3.3.6.4,1,.4s.9-.2,1.2-.6Z"/>
    <path class="st2" d="M170.9,135.3s0,0,0,0c0,0,0,0,.2,0,.1,0,.3-.1.3-.2,0-.1.1-.2.2-.4.1-1,.3-2.1.3-3.4v-.3c0,0,0-.2,0-.2,0,0,0-.1-.1-.1-.1,0-.3-.2-.5-.2-.1,0-.2,0-.2-.2s0-.1.2-.1.4,0,.6,0c.4,0,.7,0,.9,0s0,0,.1,0c0,0,0,0,0,0,0,.2,0,.2,0,.3v.3c.1,0,1.3,3,1.3,3,0,0,0,0,0,0s0,0,0,0l1.3-2.9c0-.3.1-.6.2-.7,0,0,0-.1.1-.1h.3c.2,0,.4,0,.6,0,.3,0,.5,0,.6,0,.1,0,.2,0,.2.1s0,0,0,0c0,0,0,0-.2,0-.1,0-.2,0-.3.1-.1,0-.2.1-.3.2,0,0,0,.2,0,.3,0,.6,0,1.1,0,1.6,0,.5,0,.9,0,1.4v.7c0,.1.1.3.2.4.1,0,.2.2.4.2,0,0,.1,0,.2,0,0,0,0,0,0,.1s0,0,0,0c0,0,0,0-.1,0-.1,0-.3,0-.6,0s-.4,0-.6,0-.3,0-.5,0c-.2,0-.4,0-.6,0s-.1,0-.1,0c0,0,0,0,0,0,0,0,0-.1.2-.2.2,0,.3,0,.4-.2,0,0,0-.2,0-.4,0-.9,0-1.9,0-3,0,0,0,0,0,0s0,0,0,0l-1.7,3.8s0,0,0,0,0,0,0,0c0,0,0,0,0,0-.2-.5-.5-1.2-1-2.3-.4-.9-.6-1.4-.6-1.5,0,0,0,0,0,0,0,0,0,0,0,0,0,.8-.1,1.7-.1,2.9s0,.3.1.4c0,.1.2.2.4.2,0,0,.1,0,.2,0,0,0,0,0,0,.1s0,0,0,0c0,0,0,0-.2,0-.2,0-.3,0-.5,0-.1,0-.2,0-.3,0s-.2,0-.5,0c-.2,0-.3,0-.3,0-.1,0-.2,0-.2-.1Z"/>
    <path class="st2" d="M178.4,135.3s0,0,0,0c0,0,0,0,.2,0,.1,0,.3-.1.3-.2,0-.1.1-.2.2-.4.1-1,.3-2.1.3-3.4v-.3c0,0,0-.2,0-.2,0,0,0-.1-.1-.1-.1,0-.3-.2-.5-.2-.1,0-.2,0-.2-.2s0-.1.2-.1.4,0,.6,0c.4,0,.7,0,.9,0s0,0,.1,0c0,0,0,0,0,0,0,.2,0,.2,0,.3v.3c.1,0,1.3,3,1.3,3,0,0,0,0,0,0s0,0,0,0l1.3-2.9c0-.3.1-.6.2-.7,0,0,0-.1.1-.1h.3c.2,0,.4,0,.6,0,.3,0,.5,0,.6,0,.1,0,.2,0,.2.1s0,0,0,0c0,0,0,0-.2,0-.1,0-.2,0-.3.1-.1,0-.2.1-.3.2,0,0,0,.2,0,.3,0,.6,0,1.1,0,1.6,0,.5,0,.9,0,1.4v.7c0,.1.1.3.2.4.1,0,.2.2.4.2,0,0,.1,0,.2,0,0,0,0,0,0,.1s0,0,0,0c0,0,0,0-.1,0-.1,0-.3,0-.6,0s-.4,0-.6,0-.3,0-.5,0c-.2,0-.4,0-.6,0s-.1,0-.1,0c0,0,0,0,0,0,0,0,0-.1.2-.2.2,0,.3,0,.4-.2,0,0,0-.2,0-.4,0-.9,0-1.9,0-3,0,0,0,0,0,0s0,0,0,0l-1.7,3.8s0,0,0,0,0,0,0,0c0,0,0,0,0,0-.2-.5-.5-1.2-1-2.3-.4-.9-.6-1.4-.6-1.5,0,0,0,0,0,0,0,0,0,0,0,0,0,.8-.1,1.7-.1,2.9s0,.3.1.4c0,.1.2.2.4.2,0,0,.1,0,.2,0,0,0,0,0,0,.1s0,0,0,0c0,0,0,0-.2,0-.2,0-.3,0-.5,0-.1,0-.2,0-.3,0s-.2,0-.5,0c-.2,0-.3,0-.3,0-.1,0-.2,0-.2-.1Z"/>
    <path class="st2" d="M185.7,135.3s0,0,0-.1c0,0,0,0,.2,0,.3,0,.6-.3.7-.6.5-1.1,1-2.4,1.5-3.7,0-.1,0-.3.1-.4,0-.1,0-.2,0-.2.2,0,.4,0,.5-.1,0,0,.2,0,.2-.2,0,0,0-.1.1-.1,0,0,0,0,0,0,0,0,0,0,0,.2.2.6.4,1.4.7,2.2.3.8.5,1.4.6,1.7l.2.6c0,.2.2.4.3.5.1,0,.3.2.5.2.1,0,.2,0,.2.2s0,0-.2,0h-.6c-.2,0-.5,0-.7,0s-.3,0-.6,0c-.3,0-.4,0-.5,0s-.1,0-.1,0,0,0,0,0c0,0,0-.1.2-.2.2,0,.3,0,.4-.1,0,0,.1-.1.1-.2s0,0,0,0c0-.2-.1-.6-.3-1.1,0,0,0,0,0,0,0,0,0,0-.1,0h-1.5c0,0-.1,0-.1.1-.2.5-.3.8-.3,1,0,0,0,0,0,.1,0,.1,0,.2.1.3,0,0,.2.1.4.2.1,0,.2,0,.2.2s0,0,0,0c0,0,0,0-.1,0h-.4c-.2,0-.3,0-.5,0s-.2,0-.3,0c-.1,0-.2,0-.2,0-.2,0-.3,0-.5,0s-.2,0-.2-.1ZM189,133s0,0,0,0c0,0,0,0,0,0s0,0,0,0l-.6-1.9c0,0,0-.1,0-.1s0,0,0,.1l-.7,1.9s0,0,0,0c0,0,0,0,.2,0h1.1Z"/>
    <path class="st2" d="M196.7,135.4c-.2,0-.3-.2-.4-.4-.2-.2-.4-.5-.7-.8-.2-.3-.4-.5-.6-.7-.8-1-1.4-1.6-1.8-2,0,0,0,0-.1,0s0,0,0,0c0,0,0,0,0,.1v2.9c0,.2,0,.3.2.4,0,.1.3.2.5.2,0,0,.1,0,.2,0,0,0,0,0,0,.1s0,0,0,0c0,0,0,0-.2,0-.2,0-.3,0-.5,0-.1,0-.3,0-.4,0s-.2,0-.5,0c-.1,0-.2,0-.3,0s-.1,0-.1,0c0,0,0,0,0,0s0,0,0-.1c0,0,0,0,.2,0,.3,0,.4-.3.4-.7.1-1.1.2-2.2.2-3.3s0-.5-.2-.6c-.1-.1-.3-.2-.6-.3,0,0-.1,0-.2,0s0,0,0-.1c0,0,0-.1.2-.1s.3,0,.6,0c.3,0,.6,0,.9,0s.1,0,.2.1c.2.2.6.7,1.4,1.7.8,1,1.4,1.7,1.7,2,0,0,.1.1.2.1s0,0,0,0c0,0,0,0,0-.1v-1.3c0-.8,0-1.3,0-1.7,0-.1,0-.2-.2-.3-.1,0-.2-.1-.4-.2-.2,0-.3-.1-.3-.2s0,0,0,0,.1,0,.2,0h.7s.4,0,.4,0c.2,0,.3,0,.5,0s.1,0,.2,0c0,0,0,0,0,0,0,0,0,.1-.2.2-.2,0-.3,0-.4.2,0,0-.1.2-.1.3,0,.4,0,.8,0,1.4,0,.9,0,1.6,0,2s0,.3,0,.4c0,.2,0,.3,0,.3,0,.1,0,.2,0,.3,0,.2,0,.3-.2.3s-.2,0-.4-.1Z"/>
    <path class="st2" d="M200.4,135.4c-.1,0-.3,0-.4,0-.1,0-.3,0-.4,0s-.3,0-.5,0c-.2,0-.4,0-.6,0s0,0-.1,0c0,0,0,0,0,0s0,0,0-.1c0,0,0,0,.2,0,.2,0,.4-.1.4-.2,0,0,.1-.2.1-.4v-3.7c0-.2,0-.3-.1-.4,0,0-.2-.1-.4-.2,0,0-.1,0-.2,0,0,0,0,0,0-.1s0,0,0,0c0,0,0,0,.1,0,.1,0,.3,0,.6,0,.2,0,.4,0,.5,0s.4,0,.8,0c.4,0,.6,0,.8,0,.6,0,1.1.1,1.6.3.4.2.8.5,1,.9.2.4.4.9.4,1.4s-.1,1-.4,1.4c-.2.4-.6.8-1,1-.4.3-.9.4-1.5.4s-.4,0-.9,0ZM202.5,134.4c.3-.4.5-1,.5-1.7s0-.9-.2-1.3-.4-.7-.7-.9c-.3-.2-.6-.3-1-.3s-.4,0-.5,0c-.1,0-.2,0-.3,0s0,.1,0,.3v3.6c0,.3,0,.5.3.6.2.1.4.2.7.2.6,0,1-.2,1.4-.6Z"/>
    <path class="st2" d="M208.1,135.1c-.5-.2-.8-.6-1.1-1-.3-.4-.4-.9-.4-1.4s.1-1,.4-1.4c.3-.4.7-.8,1.2-1,.5-.3,1.1-.4,1.7-.4s.5,0,.7,0c.2,0,.5.1.8.2.1,0,.2.1.2.2,0,.4,0,.7,0,1,0,0,0,0,0,.1,0,0,0,0-.1,0s0,0-.1,0c0,0,0,0,0,0,0-.2-.1-.3-.2-.5,0-.1-.1-.2-.2-.3-.3-.2-.7-.3-1.2-.3s-.7.1-1,.3c-.3.2-.5.5-.7.8s-.2.7-.2,1.1,0,.9.2,1.3c.2.4.4.7.7.9.3.2.7.3,1.1.3s.7,0,1-.3c.3-.2.5-.4.6-.8,0,0,0,0,0,0,0,0,0,0,0,0s0,0,0,0,0,0,0,0c0,0,0,.2,0,.4,0,.2,0,.3-.1.5,0,0,0,.1,0,.1,0,0,0,0-.1,0-.2,0-.4.2-.7.2-.3,0-.6,0-.9,0-.5,0-1.1-.1-1.5-.3Z"/>
    <path class="st2" d="M212.3,135.4s0,0,0,0c0,0,0-.1.2-.2.2,0,.3-.1.4-.2s.1-.2.1-.4v-3.7c0-.2,0-.3-.1-.4,0,0-.2-.1-.4-.2-.1,0-.2,0-.2-.2s0,0,0,0,0,0,.1,0c.2,0,.4,0,.7,0,.3,0,.5,0,.6,0,.4,0,1,0,1.6,0,.2,0,.3,0,.4,0,.1,0,.2,0,.2,0,.1,0,.2,0,.2.1v.4c.1.3.1.5.1.6s0,0,0,.1c0,0,0,0,0,0,0,0,0,0-.1-.1,0-.1,0-.2-.1-.3,0-.1,0-.2-.1-.2-.2-.2-.3-.2-.6-.2h-.8c-.1,0-.2,0-.3,0,0,0-.1.1-.1.2v1.6c0,.1,0,.2.2.2h.7c.1,0,.2,0,.3-.1,0,0,.1-.2.2-.4,0-.1,0-.2.2-.2s0,0,0,0c0,0,0,0,0,.1,0,.2,0,.4,0,.6s0,.5,0,.7h0c0,.1,0,.2,0,.2s0,0-.1,0c0,0,0,0,0-.2,0-.2,0-.3-.2-.3,0,0-.1-.1-.2-.1h-.8c0,0-.1,0-.2,0,0,0,0,0,0,.2v1.6c0,.2,0,.3.1.4,0,0,.2.1.4.1h.7c.3,0,.5,0,.7-.2.1-.1.3-.3.5-.6,0,0,0-.1.1-.1,0,0,0,0,0,.1,0,.2,0,.5-.3,1,0,0,0,.1-.2.1h-1c-.7,0-1.3,0-1.7,0s-.3,0-.5,0c-.2,0-.4,0-.6,0s-.1,0-.1,0Z"/>
    <path class="st2" d="M222,135.4c-.2,0-.3-.2-.4-.4-.2-.2-.4-.5-.7-.8-.2-.3-.4-.5-.6-.7-.8-1-1.4-1.6-1.8-2,0,0,0,0-.1,0s0,0,0,0c0,0,0,0,0,.1v2.9c0,.2,0,.3.2.4,0,.1.3.2.5.2,0,0,.1,0,.2,0,0,0,0,0,0,.1s0,0,0,0c0,0,0,0-.2,0-.2,0-.3,0-.5,0-.1,0-.3,0-.4,0s-.2,0-.5,0c-.1,0-.2,0-.3,0s-.1,0-.1,0c0,0,0,0,0,0s0,0,0-.1c0,0,0,0,.2,0,.3,0,.4-.3.4-.7.1-1.1.2-2.2.2-3.3s0-.5-.2-.6c-.1-.1-.3-.2-.6-.3,0,0-.1,0-.2,0s0,0,0-.1c0,0,0-.1.2-.1s.3,0,.6,0c.3,0,.6,0,.9,0s.1,0,.2.1c.2.2.6.7,1.4,1.7.8,1,1.4,1.7,1.7,2,0,0,.1.1.2.1s0,0,0,0c0,0,0,0,0-.1v-1.3c0-.8,0-1.3,0-1.7,0-.1,0-.2-.2-.3-.1,0-.2-.1-.4-.2-.2,0-.3-.1-.3-.2s0,0,0,0,.1,0,.2,0h.7s.4,0,.4,0c.2,0,.3,0,.5,0s.1,0,.2,0c0,0,0,0,0,0,0,0,0,.1-.2.2-.2,0-.3,0-.4.2,0,0-.1.2-.1.3,0,.4,0,.8,0,1.4,0,.9,0,1.6,0,2s0,.3,0,.4c0,.2,0,.3,0,.3,0,.1,0,.2,0,.3,0,.2,0,.3-.2.3s-.2,0-.4-.1Z"/>
    <path class="st2" d="M224.9,135.4s0,0,0,0c0,0,0-.1.2-.2.2,0,.4-.1.5-.2,0,0,.1-.2.1-.4v-3.3c0-.3,0-.5,0-.6,0-.1,0-.2-.1-.2,0,0-.2,0-.4,0h-.3c-.2,0-.3,0-.5.1-.1,0-.3.2-.3.3,0,0-.1.2-.2.3,0,0-.2.1-.2.1s0,0,0-.1,0-.1,0-.2c0-.2.2-.4.2-.5,0-.1,0-.3,0-.5,0-.1,0-.2.2-.2s0,0,.1.1,0,.1.1.2c0,0,.1,0,.2.1.1,0,.2,0,.3,0h3c.3,0,.5,0,.6-.1,0,0,0,0,.2-.1,0,0,0,0,.1,0s0,0,.1,0c0,0,0,0,0,.2s0,0,0,.2v.2c-.1.2-.1.4-.1.5h0c0,.2,0,.3,0,.3,0,0,0,0-.1,0s0,0-.1,0c0,0,0-.1,0-.2,0-.2-.1-.3-.3-.4s-.3-.1-.5-.1h-.6c-.1,0-.2,0-.3,0s0,.1-.1.2c0,.1,0,.3,0,.6v3.3c0,.2,0,.3.1.4s.2.1.5.2c0,0,.1,0,.2,0,0,0,0,0,0,.1s0,0,0,0c0,0,0,0-.1,0-.1,0-.3,0-.6,0-.3,0-.4,0-.6,0s-.3,0-.6,0c-.2,0-.4,0-.6,0s-.1,0-.1,0Z"/>
    <path class="st2" d="M229.3,135.4s0,0,0,0c0,0,0-.1.2-.2.2,0,.3-.1.4-.2s.1-.2.1-.4v-3.7c0-.2,0-.3-.1-.4,0,0-.2-.1-.4-.2-.1,0-.2,0-.2-.2s0,0,0,0,0,0,.1,0c.2,0,.4,0,.7,0,.3,0,.5,0,.6,0,.4,0,1,0,1.6,0,.2,0,.3,0,.4,0,.1,0,.2,0,.2,0,.1,0,.2,0,.2.1v.4c.1.3.1.5.1.6s0,0,0,.1c0,0,0,0,0,0,0,0,0,0-.1-.1,0-.1,0-.2-.1-.3,0-.1,0-.2-.1-.2-.2-.2-.3-.2-.6-.2h-.8c-.1,0-.2,0-.3,0,0,0-.1.1-.1.2v1.6c0,.1,0,.2.2.2h.7c.1,0,.2,0,.3-.1,0,0,.1-.2.2-.4,0-.1,0-.2.2-.2s0,0,0,0c0,0,0,0,0,.1,0,.2,0,.4,0,.6s0,.5,0,.7h0c0,.1,0,.2,0,.2s0,0-.1,0c0,0,0,0,0-.2,0-.2,0-.3-.2-.3,0,0-.1-.1-.2-.1h-.8c0,0-.1,0-.2,0,0,0,0,0,0,.2v1.6c0,.2,0,.3.1.4,0,0,.2.1.4.1h.7c.3,0,.5,0,.7-.2.1-.1.3-.3.5-.6,0,0,0-.1.1-.1,0,0,0,0,0,.1,0,.2,0,.5-.3,1,0,0,0,.1-.2.1h-1c-.7,0-1.3,0-1.7,0s-.3,0-.5,0c-.2,0-.4,0-.6,0s-.1,0-.1,0Z"/>
    <path class="st2" d="M238.1,135.4c-.2-.1-.4-.3-.6-.5-.2-.3-.4-.6-.6-.8s-.3-.5-.5-.9c0-.1-.2-.2-.3-.3-.1,0-.2,0-.4-.1h0c0,0,0,0,0,.2v1.5c0,.2,0,.3.1.4,0,0,.2.2.5.2,0,0,.1,0,.2,0,0,0,0,0,0,.1,0,0,0,.1-.2.1-.2,0-.4,0-.6,0-.2,0-.4,0-.5,0-.2,0-.4,0-.6,0,0,0-.2,0-.3,0-.1,0-.2,0-.3,0s0,0-.1,0c0,0,0,0,0,0,0,0,0-.1.2-.2.2,0,.4-.1.4-.2,0,0,.1-.2.1-.4v-3.6c0-.2,0-.3,0-.4,0,0,0-.1-.1-.2,0,0-.2,0-.3-.1,0,0-.1,0-.2,0,0,0,0,0,0-.1,0,0,0-.1.2-.1.2,0,.4,0,.6,0,.2,0,.3,0,.4,0s.2,0,.2,0c0,0,.1,0,.2,0,.2,0,.4,0,.7,0,.6,0,1.1.1,1.5.3s.5.6.5,1,0,.6-.3.8c-.2.2-.4.4-.7.5,0,0,0,0,0,0,0,0,0,0,0,0,.3.4.6.8.8,1.1.2.3.5.6.8.8.2.1.3.2.5.3.2,0,.4,0,.6,0s.1,0,.1.1c0,.2,0,.3-.2.3-.2,0-.4.1-.6.1s-.6,0-.8-.2ZM236.8,132.3c.2-.2.3-.5.3-.8s0-.7-.2-.9c-.2-.2-.4-.3-.8-.3s-.2,0-.3.2c0,.1,0,.3,0,.6,0,.2,0,.6,0,1.2s0,.2,0,.2c0,0,.1,0,.3,0,.3,0,.6-.1.8-.3Z"/>
    <path class="st2" d="M241.9,135.4s0,0,0,0c0,0,0-.1.2-.2.2,0,.4-.1.4-.2,0,0,.1-.2.1-.4v-3.6c0-.2,0-.4-.1-.5,0,0-.2-.2-.4-.2-.1,0-.2,0-.2-.2s0-.1.2-.1.4,0,.7,0c.3,0,.5,0,.6,0h1.3c.1,0,.4,0,.6,0,.2,0,.3,0,.4,0s0,0,.1,0c0,0,0,0,0,0,0,.3,0,.7,0,1s0,0,0,.1,0,0,0,0,0,0,0,0c0,0,0,0,0,0,0-.3-.2-.5-.3-.6-.1-.1-.3-.2-.6-.2h-.7c-.1,0-.2,0-.3.1,0,0,0,.2,0,.3v1.5c0,.1,0,.2.2.2h.5c0,0,.2,0,.4,0s.2,0,.3-.1c0,0,.1-.2.2-.3,0,0,0,0,0,0,0,0,0,0,0,0s0,0,0,0c0,0,0,0,0,.1,0,.2,0,.4,0,.6s0,.3,0,.6h0c0,.1,0,.2,0,.2s0,0-.1,0,0,0,0-.1c0-.1,0-.2-.2-.3,0,0-.1,0-.2,0h-.4c-.2,0-.4,0-.5,0-.1,0-.2,0-.2.2,0,.4,0,.9,0,1.6,0,.2,0,.3.1.4,0,0,.2.1.5.2,0,0,.1,0,.2,0,0,0,0,0,0,.1,0,0,0,.1-.2.1-.2,0-.4,0-.6,0-.2,0-.4,0-.5,0-.2,0-.4,0-.5,0,0,0-.2,0-.3,0-.1,0-.2,0-.3,0s0,0-.1,0Z"/>
    <path class="st2" d="M247.8,135.1c-.4-.2-.8-.5-1-1s-.4-.9-.4-1.4.1-1,.3-1.4c.2-.4.6-.8,1-1.1.4-.3,1-.4,1.6-.4s1,.1,1.4.3c.4.2.8.5,1,1,.3.4.4.9.4,1.4s-.1,1-.3,1.4c-.2.4-.6.8-1,1.1-.4.3-1,.4-1.6.4s-1-.1-1.4-.3ZM250.5,134.6c.3-.4.4-.9.4-1.5s0-.9-.2-1.4c-.1-.4-.3-.8-.6-1-.3-.3-.6-.4-1-.4s-.9.2-1.2.6c-.3.4-.4.9-.4,1.5s0,.9.2,1.4c.1.4.3.8.6,1,.3.3.6.4,1,.4s.9-.2,1.2-.6Z"/>
    <path class="st2" d="M256.8,135.4c-.2-.1-.4-.3-.6-.5-.2-.3-.4-.6-.6-.8s-.3-.5-.5-.9c0-.1-.2-.2-.3-.3-.1,0-.2,0-.4-.1h0c0,0,0,0,0,.2v1.5c0,.2,0,.3.1.4,0,0,.2.2.5.2,0,0,.1,0,.2,0,0,0,0,0,0,.1,0,0,0,.1-.2.1-.2,0-.4,0-.6,0-.2,0-.4,0-.5,0-.2,0-.4,0-.6,0,0,0-.2,0-.3,0-.1,0-.2,0-.3,0s0,0-.1,0c0,0,0,0,0,0,0,0,0-.1.2-.2.2,0,.4-.1.4-.2,0,0,.1-.2.1-.4v-3.6c0-.2,0-.3,0-.4,0,0,0-.1-.1-.2,0,0-.2,0-.3-.1,0,0-.1,0-.2,0,0,0,0,0,0-.1,0,0,0-.1.2-.1.2,0,.4,0,.6,0,.2,0,.3,0,.4,0s.2,0,.2,0c0,0,.1,0,.2,0,.2,0,.4,0,.7,0,.6,0,1.1.1,1.5.3s.5.6.5,1,0,.6-.3.8c-.2.2-.4.4-.7.5,0,0,0,0,0,0,0,0,0,0,0,0,.3.4.6.8.8,1.1.2.3.5.6.8.8.2.1.3.2.5.3.2,0,.4,0,.6,0s.1,0,.1.1c0,.2,0,.3-.2.3-.2,0-.4.1-.6.1s-.6,0-.8-.2ZM255.4,132.3c.2-.2.3-.5.3-.8s0-.7-.2-.9c-.2-.2-.4-.3-.8-.3s-.2,0-.3.2c0,.1,0,.3,0,.6,0,.2,0,.6,0,1.2s0,.2,0,.2c0,0,.1,0,.3,0,.3,0,.6-.1.8-.3Z"/>
    <path class="st2" d="M262.5,135.4c-.1,0-.3,0-.4,0-.1,0-.3,0-.4,0s-.3,0-.5,0c-.2,0-.4,0-.6,0s0,0-.1,0c0,0,0,0,0,0s0,0,0-.1c0,0,0,0,.2,0,.2,0,.4-.1.4-.2,0,0,.1-.2.1-.4v-3.7c0-.2,0-.3-.1-.4,0,0-.2-.1-.4-.2,0,0-.1,0-.2,0,0,0,0,0,0-.1s0,0,0,0c0,0,0,0,.1,0,.1,0,.3,0,.6,0,.2,0,.4,0,.5,0s.4,0,.8,0c.4,0,.6,0,.8,0,.6,0,1.1.1,1.6.3.4.2.8.5,1,.9.2.4.4.9.4,1.4s-.1,1-.4,1.4c-.2.4-.6.8-1,1-.4.3-.9.4-1.5.4s-.4,0-.9,0ZM264.6,134.4c.3-.4.5-1,.5-1.7s0-.9-.2-1.3-.4-.7-.7-.9c-.3-.2-.6-.3-1-.3s-.4,0-.5,0c-.1,0-.2,0-.3,0s0,.1,0,.3v3.6c0,.3,0,.5.3.6.2.1.4.2.7.2.6,0,1-.2,1.4-.6Z"/>
    <path class="st2" d="M267.6,135.4c-.2,0-.4-.2-.5-.4-.1-.2-.2-.4-.2-.6,0-.4.1-.7.3-1,.2-.3.6-.5,1-.7h.2c0,0,0-.2,0-.2,0,0,0,0-.2-.2-.1-.1-.2-.2-.3-.4,0-.1-.1-.3-.1-.4s0-.4.2-.5c.1-.2.3-.3.5-.4.2,0,.4-.1.7-.1s.4,0,.6.1.3.2.4.3c0,.1.1.3.1.5s0,.4-.2.6c-.1.1-.4.3-.7.4h-.2c0,0,.1.2.1.2l.2.3c.3.3.6.6.7.8v.2c.1,0,.3-.1.3-.1.2-.2.3-.4.4-.6.1-.2.2-.3.2-.4s0-.1,0-.2c0,0-.1,0-.2-.1,0,0-.1,0-.1-.1s0-.1.2-.1.2,0,.3,0c0,0,.1,0,.2,0,0,0,.2,0,.3,0s.3,0,.5,0c.2,0,.4,0,.4,0s0,0,0,0c0,0,0,0,0,0,0,0,0,0,0,.1,0,0-.1,0-.2,0-.2,0-.5.2-.7.4l-.2.2c-.7.7-1.1,1-1.1,1l.2.2c.2.3.4.5.5.6.2.1.3.2.5.2s.4,0,.6-.1c0,0,0,0,0,0,0,0,0,0,0,0,0,0,0,0,0,0s0,0,0,0c0,0,0,.2-.2.3-.1.1-.3.2-.5.3s-.4.1-.6.1c-.3,0-.5,0-.7-.2s-.4-.3-.6-.6v-.2c-.1,0-.2,0-.2,0-.3.3-.5.5-.8.7-.3.2-.6.2-.9.2s-.5,0-.7-.1ZM269.7,134.4h0c0,0-.1-.2-.1-.2-.2-.2-.5-.6-.9-1l-.3-.3h0c0-.1-.2,0-.2,0-.4.2-.6.5-.6,1s0,.5.3.7c.2.2.4.3.7.3s.7-.1,1-.4ZM269.2,132.1c0,0,.2-.2.2-.3,0-.1,0-.3,0-.5s0-.3-.1-.5c0-.1-.2-.2-.3-.2s-.2,0-.3.1c0,0-.1.2-.1.3,0,.2,0,.3,0,.5,0,.1.2.3.3.4l.2.2h0Z"/>
    <path class="st2" d="M275.2,135.4c-.1,0-.3,0-.4,0-.1,0-.3,0-.4,0s-.3,0-.5,0c-.2,0-.4,0-.6,0s0,0-.1,0c0,0,0,0,0,0s0,0,0-.1c0,0,0,0,.2,0,.2,0,.4-.1.4-.2,0,0,.1-.2.1-.4v-3.7c0-.2,0-.3-.1-.4,0,0-.2-.1-.4-.2,0,0-.1,0-.2,0,0,0,0,0,0-.1s0,0,0,0c0,0,0,0,.1,0,.1,0,.3,0,.6,0,.2,0,.4,0,.5,0s.4,0,.8,0c.4,0,.6,0,.8,0,.6,0,1.1.1,1.6.3.4.2.8.5,1,.9.2.4.4.9.4,1.4s-.1,1-.4,1.4c-.2.4-.6.8-1,1-.4.3-.9.4-1.5.4s-.4,0-.9,0ZM277.3,134.4c.3-.4.5-1,.5-1.7s0-.9-.2-1.3-.4-.7-.7-.9c-.3-.2-.6-.3-1-.3s-.4,0-.5,0c-.1,0-.2,0-.3,0s0,.1,0,.3v3.6c0,.3,0,.5.3.6.2.1.4.2.7.2.6,0,1-.2,1.4-.6Z"/>
  </g>
</svg>