<?xml version="1.0" encoding="UTF-8"?>
<svg id="Layer_1" xmlns="http://www.w3.org/2000/svg" version="1.1" viewBox="0 0 412.5 140.51">
  <!-- Generator: Adobe Illustrator 29.8.2, SVG Export Plug-In . SVG Version: 2.1.1 Build 3)  -->
  <defs>
    <style>
      .st0 {
        fill: #d8c988;
      }

      .st1 {
        fill: #be873b;
      }

      .st2 {
        fill: #141411;
      }
    </style>
  </defs>
  <polygon class="st2" points="314.9 100.5 294.6 120.7 117.8 120.7 97.5 100.5 117.8 80.2 294.6 80.2 314.9 100.5"/>
  <polygon class="st2" points="408.6 18.8 389.3 99 317.7 99 295.9 77.1 116.6 77.1 94.8 99 23.1 99 3.8 18.8 171.6 18.8 187.4 3 225 3 240.8 18.8 408.6 18.8"/>
  <g>
    <polygon class="st0" points="111.9 105.3 109.3 107.9 101.8 100.5 109.3 93 111.9 95.7 107.1 100.5 111.9 105.3"/>
    <rect class="st0" x="112.23" y="98.52" width="3.8" height="3.8" transform="translate(-37.56 110.38) rotate(-45.1)"/>
    <polygon class="st0" points="114 93.5 111.4 90.9 117.3 84.9 117.3 90.2 114 93.5"/>
    <polygon class="st0" points="114 107.4 117.3 110.7 117.3 116 111.4 110 114 107.4"/>
    <polygon class="st0" points="296.3 105.3 292.1 109.4 292.1 117.7 120.3 117.7 120.3 109.4 116.2 105.3 121 100.5 116.2 95.7 120.3 91.5 120.3 83.2 292.1 83.2 292.1 91.5 296.3 95.7 291.5 100.5 296.3 105.3"/>
    <polygon class="st0" points="298.4 93.5 295.1 90.2 295.1 84.9 301.1 90.9 298.4 93.5"/>
    <polygon class="st0" points="298.4 107.4 301.1 110 295.1 116 295.1 110.7 298.4 107.4"/>
    <polygon class="st0" points="295.7 100.5 298.4 97.8 301.1 100.5 298.4 103.1 295.7 100.5"/>
    <polygon class="st0" points="310.7 100.5 303.2 107.9 300.5 105.3 305.3 100.5 300.5 95.7 303.2 93 310.7 100.5"/>
  </g>
  <path class="st1" d="M242.1,15.8L226.3,0h-40.1l-15.9,15.8H0l20.8,86.1h74l21.8,21.8h179.3l21.8-21.8h74l20.8-86.1s-170.4,0-170.4,0ZM294.6,120.7H117.8l-20.3-20.3,20.3-20.3h176.8l20.3,20.3-20.3,20.3ZM389.3,99h-71.6l-21.8-21.8H116.6l-21.8,21.8H23.1L3.8,18.8h167.8l15.9-15.8h37.6l15.8,15.8h167.8l-19.3,80.1-.1.1h0Z"/>
  <g>
    <g>
      <path class="st2" d="M210.1,91.5h1c.3,0,.5,0,.7.2s.3.3.3.6v11.3c0,1.8-.5,3.3-1.6,4.4s-2.4,1.7-4.2,1.7-3.1-.6-4.1-1.7c-1-1.2-1.5-2.7-1.5-4.7v-10.9c0-.3,0-.4.3-.6.2-.2.4-.2.7-.2h1v-1.4h-6.9v1.4h1c.2,0,.4,0,.5.1.3.2.5.4.5.8v11.3c0,2.4.8,4.3,2.4,5.8,1.6,1.5,3.6,2.2,6.1,2.2s4.5-.7,6-2.2,2.3-3.4,2.3-5.8v-11.3c0-.2,0-.4.3-.6.2-.2.4-.3.7-.3h1v-1.4h-6.4v1.4s-.1-.1-.1-.1Z"/>
      <path class="st2" d="M149.4,91.5h.8c.3,0,.4.1.5.2.2.2.2.3.2.4v.5l-5.7,13.8-5.5-13.8v-.5c0-.13.07-.27.2-.4.2-.2.1-.2.5-.2h.8v-1.4h-7.6v1.4h.8c.4,0,.7.1,1.1.4.4.2.7.6.9,1.1l8.2,18.7h1.2v-.6c0-.1,0-.7,1-2.7l6.9-15.5c.2-.5.5-.9.9-1.1s.7-.4,1.1-.4h.8v-1.4h-6.9v1.4l-.2.1Z"/>
      <path class="st2" d="M182.6,109.5c-.4-.2-.7-.6-.9-1.1l-7.8-18.7h-1.2v.6c0,.2,0,.7-1,2.7l-6.5,15.4c-.2.5-.6.9-.9,1.1-.4.2-.7.4-1.1.4h-.8v1.4h6.9v-1.4h-.8c-.3,0-.4-.1-.5-.2-.2-.2-.2-.3-.2-.4v-.5l1.8-4.6h7l1.7,4.5v.5c0,.13-.07.27-.2.4-.2.2-.1.2-.5.2h-.8v1.4h7.6v-1.4h-.8c-.4,0-.8-.1-1.1-.4,0,0,.1.1.1.1ZM170.4,102.3l2.8-7.1,2.7,7.1h-5.5Z"/>
      <path class="st2" d="M245.7,105.8c-.5,1.2-1,2-1.7,2.6-.6.5-1.6.8-2.9.8h-4.9v-16.6c0-.2,0-.4.2-.6.3-.4.6-.6,1.1-.6h.9v-1.4h-7.4v1.4h.9c.4,0,.6.1.9.4.3.3.4.5.4.9v15.9c0,.4-.1.7-.4.9-.3.3-.5.4-.9.4h-.9v1.4h14.2l2.1-5.8h-1.5v.4l-.1-.1h0Z"/>
      <path class="st2" d="M278.3,89.6s-.2,0-1,.3c-.6.1-1.3.2-2.2.2h-12.3c-.6,0-1.2,0-1.9-.2-.8-.1-1.2-.2-1.4-.3l-.8-.3v5.1h1.4v-1.1c0-.3.1-.6.3-.8.2-.2.5-.3.8-.4h6.2v16.6c0,.3-.1.6-.4.9-.3.2-.5.4-.9.4h-.9v1.4h7.4v-1.4h-.9c-.4,0-.6-.1-.9-.4-.2-.2-.4-.5-.4-.9v-16.6h6.2c.3,0,.5.1.8.4.2.2.3.5.3.8v1h1.4c0,.1,0-4.9,0-4.9l-.8.3v-.1h0Z"/>
    </g>
    <g>
      <circle class="st2" cx="188.8" cy="101" r="1.4"/>
      <circle class="st2" cx="223.4" cy="101" r="1.4"/>
    </g>
    <g>
      <circle class="st2" cx="158.4" cy="101" r="1.4"/>
      <circle class="st2" cx="253.9" cy="101" r="1.4"/>
    </g>
  </g>
  <path class="st0" d="M221.3,55c0,4.3-1.5,7.6-4.6,9.7s-7.2,3.2-12.3,3.2-5.6-.3-7.9-1-3.9-1.5-4.9-2.5c-.3-.8-.5-1.6-.5-2.6s0-1.8.2-2.7c.4-2.1,1.1-3.8,2-5h.5v.7c0,2.7,1,5,3.1,7.1s5,3.1,8.6,3.1,4.3-.5,5.6-1.5,2-2.2,2-3.5-.4-2.4-1.3-3.4c-.9-.9-2.4-1.9-4.4-2.8l-8.8-4.1c-2.5-1.1-4.3-2.7-5.4-4.7-.9-1.6-1.3-3.3-1.3-5.2,0-3.9,1.3-6.8,3.9-8.8,2.2-1.7,5.1-2.5,8.7-2.5s5.4.2,9.1.5h4.2l-1.2,8.8h-.5c0-2-.8-3.6-2.3-4.8s-3.5-1.8-5.9-1.8-4.2.4-5.5,1.2c-1.3.8-2,1.9-2.1,3.3-.1,1.7.9,3.1,3.2,4.3.4.2.9.4,1.6.7l10.1,4.7c4.2,1.9,6.2,5,6.2,9.4l-.1.2h0ZM225.9,66.7c.9,0,1.7-.3,2.4-1s1-1.5,1-2.4v-29.8c0-1.1-.5-2.1-1.5-2.7-.6-.4-1.2-.6-2-.6h-.7v-.5h23.8c1.5,0,2.9-.1,4.1-.4,1.2-.3,2-.4,2.3-.6v11.1h-.5v-.4c0-2.9-1-4.9-3.1-6-1-.6-2.2-.9-3.6-.9h-7.8v15h5.9c1.7,0,3.1-.6,4.2-1.7,1.1-1.1,1.6-2.5,1.6-4.2v-.2h.5v15h-.5v-.3c0-1.7-.5-3.1-1.6-4.2-1.1-1.1-2.5-1.7-4.1-1.7h-5.9v14.5h6.6c2.6,0,4.9-.9,6.9-2.6,2-1.7,3.4-4.1,4.3-7.2h.5l-2,12.5h-31.5v-.5h.7v-.2h0ZM261.8,66.7c.9,0,1.7-.3,2.4-1,.7-.7,1-1.5,1-2.4v-29.8c0-1.1-.5-2.1-1.5-2.7-.6-.4-1.2-.6-2-.6h-.7v-.5h23.8c1.5,0,2.9-.1,4.1-.4s2-.4,2.3-.6v11.1h-.5v-.4c0-2.9-1-4.9-3.1-6-1-.6-2.2-.9-3.6-.9h-7.8v15h5.9c1.7,0,3.1-.6,4.2-1.7,1.1-1.1,1.6-2.5,1.6-4.2v-.2h.5v15h-.5v-.3c0-1.7-.5-3.1-1.6-4.2-1.1-1.1-2.5-1.7-4.1-1.7h-5.9v14.5h6.6c2.6,0,4.9-.9,6.9-2.6,2-1.7,3.4-4.1,4.3-7.2h.5l-2,12.5h-31.5v-.5h.7v-.2h0ZM337.6,36.7c.1-.2.2-.4.2-.6v-.5c0-.5-.2-1-.7-1.6s-.7-1.2-.7-1.9.3-1.7,1-2.1c.4-.3.9-.5,1.3-.5,1.4,0,2.4.6,2.9,1.7.3.7.4,1.4.4,2.2s-.1,1.4-.4,2c-.7,1.4-1.6,2.2-2.8,2.7-.4.1-.8.2-1.1.2h-.9v-.4c.4-.2.7-.5,1-1l-.2-.2h0ZM386.8,67.3c0,6.4-2.3,11.1-6.8,14.2s-10.5,4.7-18.1,4.7-8.2-.5-11.5-1.5-5.7-2.2-7.2-3.7c-.5-1.2-.7-2.4-.7-3.7s.1-2.6.3-3.9c.6-3.1,1.6-5.5,2.9-7.3h.7v1c0,3.9,1.5,7.4,4.6,10.5s7.3,4.6,12.6,4.6,6.3-.7,8.2-2.2c1.9-1.5,2.9-3.2,2.9-5.1s-.7-3.6-2-4.9c-1.3-1.4-3.4-2.7-6.4-4.1l-12.9-6c-3.6-1.6-6.3-3.9-7.9-6.9-1.3-2.3-2-4.9-2-7.7,0-5.7,1.9-10,5.8-12.9,3.2-2.4,7.5-3.6,12.8-3.6s7.9.3,13.3.8h6.2l-1.7,12.9h-.8c0-2.9-1.1-5.2-3.4-7s-5.1-2.7-8.6-2.7-6.2.6-8.1,1.8-3,2.8-3.1,4.8c-.2,2.5,1.4,4.6,4.7,6.3.6.3,1.3.7,2.3,1l14.8,6.9c6.1,2.8,9.2,7.4,9.2,13.7h-.1,0ZM331.6,35.4c.6,1.3.9,2.6.9,3.9s-.1,2.5-.4,3.6c-.3,1-.7,2-1.3,3-1.3,2.2-3.6,3.5-6.8,4,1.4.4,2.7,1.1,3.8,2.1,1.2,1,2.3,2.4,3.3,4.2,2.7,4.6-.9,10.4,2.8,10.4v.5h-3c-9.1,0-11.2-5.6-12.4-9.2-.3-1-.6-2.1-.8-3.3-.2-1.1-.4-2-.6-2.5s-.3-1-.6-1.5c-.2-.4-.4-.8-.7-1-.4-.4-.9-.8-1.5-1v-.5h.9c2.1,0,3.6-1,4.7-2.9.5-1,.9-2.1,1-3.3s.2-1.9.2-2.2v-.5c-.3-4.7-2.3-7.1-6.1-7.1h-2.4v31c0,.9.3,1.7,1,2.4.7.7,1.5,1,2.4,1h.6v.5h-19.3v-.5h.7c.9,0,1.7-.3,2.4-1,.7-.6,1-1.4,1-2.4v-29.9c0-1.3-.6-2.3-1.7-3-.5-.3-1.1-.4-1.7-.4h-.7v-.5h21c7,0,11.5,2,13.4,5.9l-.1.2h0ZM118.2,30.1h-.4c-1.6,0-2.9,1-3.8,2.9l-10.7,27.5c-1.6,4-2.5,6.7-2.6,8h-.4l-14.6-35.5c-1-2-2.2-3-3.9-3h-.4v-.5h17.4v.5h-.4c-.6,0-1.1.2-1.4.7s-.5.9-.5,1.4,0,.9.2,1.3l6.6,18.5,6.9-18.5c.2-.5.3-.9.3-1.3s-.2-.9-.5-1.3c-.3-.5-.8-.7-1.5-.7h-.4v-.5h10.3v.5s-.2,0-.2,0ZM117.2,66.7c.9,0,1.7-.3,2.4-1,.7-.7,1-1.5,1-2.4v-29.8c0-1.1-.5-2.1-1.5-2.7-.6-.4-1.2-.6-2-.6h-.7v-.5h23.8c1.5,0,2.9-.1,4.1-.4,1.2-.3,2-.4,2.3-.6v11.1h-.5v-.4c0-2.9-1-4.9-3.1-6-1-.6-2.2-.9-3.6-.9h-7.8v15h5.9c1.7,0,3.1-.6,4.2-1.7,1.1-1.1,1.6-2.5,1.6-4.2v-.2h.5v15h-.5v-.3c0-1.7-.5-3.1-1.6-4.2-1.1-1.1-2.5-1.7-4.1-1.7h-5.9v14.5h6.6c2.6,0,4.9-.9,6.9-2.6,2-1.7,3.4-4.1,4.3-7.2h.5l-2,12.5h-31.5v-.5h.7v-.2h0ZM185.1,35.4c.6,1.3.9,2.6.9,3.9s-.1,2.5-.4,3.6c-.3,1-.7,2-1.3,3-1.3,2.2-3.6,3.5-6.8,4,1.4.4,2.7,1.1,3.8,2.1,1.2,1,2.3,2.4,3.3,4.2,2.7,4.6-.9,10.4,2.8,10.4v.5h-3c-9.1,0-11.2-5.6-12.4-9.2-.3-1-.6-2.1-.8-3.3-.2-1.1-.4-2-.6-2.5-.2-.5-.3-1-.6-1.5-.2-.4-.4-.8-.7-1-.4-.4-.9-.8-1.5-1v-.5h.9c2.1,0,3.6-1,4.7-2.9.5-1,.9-2.1,1-3.3s.2-1.9.2-2.2v-.5c-.3-4.7-2.3-7.1-6.1-7.1h-2.4v31c0,.9.3,1.7,1,2.4.7.7,1.5,1,2.4,1h.6v.5h-19.3v-.5h.7c.9,0,1.7-.3,2.4-1,.7-.6,1-1.4,1-2.4v-29.9c0-1.3-.6-2.3-1.7-3-.5-.3-1.1-.4-1.7-.4h-.7v-.5h21c7,0,11.5,2,13.4,5.9l-.1.2h0ZM55.5,28.8c6.2,0,11.5,1.1,16,3.4,4.5,2.3,7.9,5.6,10.3,9.9s3.6,9.5,3.6,15.4c0,9-2.7,16-8,21.1s-12.6,7.6-21.9,7.6-16.6-2.5-21.9-7.6c-5.3-5.1-7.9-12.1-7.9-21.1s2.6-16,7.9-21.1c5.3-5.1,12.6-7.6,21.9-7.6ZM45.3,75.7c2.5,4.4,5.9,6.6,10.3,6.6s7.8-2.2,10.3-6.6c2.5-4.4,3.7-10.4,3.7-18.2s-1.2-13.9-3.7-18.2c-2.5-4.4-5.9-6.6-10.3-6.6s-7.8,2.2-10.3,6.6c-2.5,4.4-3.7,10.4-3.7,18.2s1.2,13.9,3.7,18.2ZM57.9,57.5l-2.3-15.1-2.3,15.1,2.3,15.1,2.3-15.1Z"/>
  <g>
    <path class="st1" d="M207.1,18.7c.2,0,.4,0,.5-.2.1-.1.2-.3.2-.5v-3.1h-3.2v3c0,.3.1.5.4.7h.6c0,.1-4.3.1-4.3.1h0c0-.1.2-.1.2-.1.2,0,.4,0,.5-.2s.2-.3.2-.5v-6.7c0-.2,0-.4-.2-.5-.1-.1-.3-.2-.5-.2h-.2c0-.1,4.3-.1,4.3-.1h0c0,.1-.2.1-.2.1-.2,0-.4,0-.5.2-.1.1-.2.3-.2.5v3.1h3.2v-3.1c0-.2,0-.4-.2-.5-.1-.1-.3-.2-.5-.2h-.2c0-.1,4.3-.1,4.3-.1h0c0,.1-.2.1-.2.1-.3,0-.5.1-.7.4,0,.1-.1.2-.1.4v6.7c0,.2,0,.4.2.5.1.1.3.2.5.2h.2c0,.1-4.3.1-4.3.1h0c0-.1.2-.1.2-.1h0Z"/>
    <g>
      <path class="st1" d="M194.9,10.9v7c0,.2,0,.4.2.5.1.1.3.2.5.2h.2c0,.1-4.3.1-4.3.1h0c0-.1.2-.1.2-.1.2,0,.4,0,.5-.2.1-.1.2-.3.2-.5v-7h-.9c-.5,0-.9.2-1.1.4-.3.3-.4.7-.4,1.1h-.1v-2.5c.1,0,.3,0,.6.1h6.3c.3,0,.5,0,.6-.1v2.5h-.1c0-.7-.2-1.2-.7-1.5-.2-.1-.5-.2-.8-.2h-.8l-.1.2h0Z"/>
      <path class="st1" d="M215.2,18.7c.2,0,.4,0,.5-.2s.2-.3.2-.5v-6.7c0-.3-.1-.5-.3-.6-.1,0-.3-.1-.4-.1h-.2c0-.1,5.3-.1,5.3-.1h.9c.3,0,.4-.1.5-.1v2.5h-.1c0-.7-.2-1.2-.7-1.4-.2-.1-.5-.2-.8-.2h-1.7v3.4h1.3c.4,0,.7-.1.9-.4.2-.2.4-.6.4-.9h.1v3.4h-.1c0-.4-.1-.7-.4-1-.2-.2-.6-.4-.9-.4h-1.3v3.2h1.5c.6,0,1.1-.2,1.6-.6s.8-.9,1-1.6h.1l-.5,2.8h-7.1c0-.1.2-.1.2-.1,0,0,0-.4,0-.4Z"/>
    </g>
  </g>
  <g>
    <path class="st0" d="M80.57,139.65h0s0-.18.53-.35c.35,0,.7-.18.7-.35s.18-.53.18-.7v-2.11c0-.35,0-.88-.35-1.41l-1.76-2.81c-.18-.35-.35-.53-.53-.7-.18-.18-.35-.35-.7-.35h-.35v-.18c0-.18,0,0,0,0h4.22c.18,0,0,0,0,0,0,0,0,.18-.35.35-.18,0-.35,0-.53.18v.88l1.41,2.46c0,.18.18.35.35.35s0,0,0,0l.18-.18c.35-.7.88-1.41,1.23-2.29,0-.18.18-.53.18-.7,0-.35-.18-.53-.7-.53h-.35v-.18c0-.18,0,0,0,0h3.17c.18,0,.35,0,.35.18s0,0,0,0h-.35c-.18,0-.53.18-.7.35-.18,0-.35.35-.53.7l-.35.53-1.41,2.11c0,.18-.18.53-.35.7s0,.35,0,.7v2.11c0,.35,0,.53.18.7s.35.35.88.35h.35v.18c0,.18,0,0,0,0h-4.6Z"/>
    <path class="st0" d="M89.89,139.12c-.7-.35-1.41-.88-1.76-1.76s-.7-1.58-.7-2.46.18-1.76.53-2.46,1.06-1.41,1.76-1.93,1.76-.7,2.81-.7,1.76.18,2.46.53,1.41.88,1.76,1.76c.53.7.7,1.58.7,2.46s-.18,1.76-.53,2.46-1.06,1.41-1.76,1.93-1.76.7-2.81.7-1.76-.18-2.46-.53ZM94.64,138.24c.53-.7.7-1.58.7-2.64s0-1.58-.35-2.46c-.18-.7-.53-1.41-1.06-1.76-.53-.53-1.06-.7-1.76-.7s-1.58.35-2.11,1.06c-.53.7-.7,1.58-.7,2.64s0,1.58.35,2.46c.18.7.53,1.41,1.06,1.76.53.53,1.06.7,1.76.7s1.58-.35,2.11-1.06Z"/>
    <path class="st0" d="M100.27,138.77c-.7-.7-1.06-1.58-1.06-2.81v-4.22c0-.35,0-.53-.18-.7s-.35-.35-.53-.35c-.23,0-.35-.12-.35-.35,0-.35,0,0,0,0h4.22-.35s-.35.18-.35.35v4.57c0,1.06.18,1.76.7,2.29.53.53,1.06.7,1.93.7s1.58-.35,2.11-.88.7-1.41.7-2.46v-2.81c0-.53,0-1.06-.18-1.23,0-.35-.35-.53-.53-.53h-.35s0-.18.35-.18h2.99s0,.18-.35.35-.53.18-.53.35-.18.53-.18.88v4.05c0,.7-.18,1.41-.53,2.11-.35.53-.88,1.06-1.41,1.41s-1.23.53-1.93.53c-1.23,0-2.29-.35-2.99-1.06h-1.23.03Z"/>
    <path class="st0" d="M116.45,139.65c-.35-.18-.7-.53-1.06-.88-.35-.53-.7-1.06-1.06-1.41s-.53-.88-.88-1.58c0-.18-.35-.35-.53-.53-.18,0-.35,0-.7-.18h0v2.99c0,.35,0,.53.18.7,0,0,.35.35.88.35h.35v.18s0,.18-.35.18h-4.22s0-.18.35-.35c.35,0,.7-.18.7-.35,0,0,.18-.35.18-.7v-7.04s0-.18-.18-.35c0,0-.35,0-.53-.18h-.35v-.18s0-.18.35-.18h3.69c1.06,0,1.93.18,2.64.53s.88,1.06.88,1.76,0,1.06-.53,1.41c-.35.35-.7.7-1.23.88h0c.53.7,1.06,1.41,1.41,1.93s.88,1.06,1.41,1.41c.35.18.53.35.88.53h1.06c.35,0,.18,0,.18.18,0,.35,0,.53-.35.53s-.7.18-1.06.18-1.06,0-1.41-.35l-.7.53h0ZM113.99,134.2c.35-.35.53-.88.53-1.41s0-1.23-.35-1.58-.7-.53-1.41-.53-.35,0-.53.35v3.17c0,1.06,0,.35,0,.35h.53c.53,0,1.06-.18,1.41-.53l-.18.18Z"/>
    <path class="st0" d="M125.78,139.12c-.88-.35-1.41-1.06-1.93-1.76s-.7-1.58-.7-2.46.18-1.76.7-2.46c.53-.7,1.23-1.41,2.11-1.76.88-.53,1.93-.7,2.99-.7h1.23c.35,0,.88.18,1.41.35.18,0,.35.18.35.35v1.93h-.35c0-.35-.18-.53-.35-.88,0-.18-.18-.35-.35-.53-.53-.35-1.23-.53-2.11-.53s-1.23.18-1.76.53-.88.88-1.23,1.41-.35,1.23-.35,1.93,0,1.58.35,2.29c.35.7.7,1.23,1.23,1.58s1.23.53,1.93.53,1.23,0,1.76-.53c.53-.35.88-.7,1.06-1.41h0v.7c0,.35,0,.53-.18.88v.18h-.18c-.35,0-.7.35-1.23.35h-1.58c-.88,0-1.93-.18-2.64-.53l-.18.53h0Z"/>
    <path class="st0" d="M135.8,139.12c-.7-.35-1.41-.88-1.76-1.76s-.7-1.58-.7-2.46.18-1.76.53-2.46,1.06-1.41,1.76-1.93,1.76-.7,2.81-.7,1.76.18,2.46.53,1.41.88,1.76,1.76c.53.7.7,1.58.7,2.46s-.18,1.76-.53,2.46-1.06,1.41-1.76,1.93-1.76.7-2.81.7-1.76-.18-2.46-.53ZM140.55,138.24c.53-.7.7-1.58.7-2.64s0-1.58-.35-2.46c-.18-.7-.53-1.41-1.06-1.76-.53-.53-1.06-.7-1.76-.7s-1.58.35-2.11,1.06c-.53.7-.7,1.58-.7,2.64s0,1.58.35,2.46c.18.7.53,1.41,1.06,1.76.53.53,1.06.7,1.76.7s1.58-.35,2.11-1.06Z"/>
    <path class="st0" d="M144.07,139.47h.35c.18,0,.53-.18.53-.35s.18-.35.35-.7c.18-1.76.53-3.69.53-5.98v-.88s0-.18-.18-.18-.53-.35-.88-.35c-.18,0-.35,0-.35-.35s0-.18.35-.18h2.64c.35,0,0,0,.18,0h0v1.06c.18,0,2.29,5.28,2.29,5.28h0l2.29-5.1c0-.53.18-1.06.35-1.23,0,0,0-.18.18-.18h2.64c.18,0,.35,0,.35.18s0,0,0,0h-.35c-.18,0-.35,0-.53.18-.18,0-.35.18-.53.35v7.04c0,.18.18.53.35.7.18,0,.35.35.7.35h.35v.18c0,.18,0,0,0,0h-4.22c-.35,0-.18,0-.18,0h0s0-.18.35-.35c.35,0,.53,0,.7-.35v-5.98h0l-2.99,6.68h0c-.35-.88-.88-2.11-1.76-4.05-.7-1.58-1.06-2.46-1.06-2.64h0c0,1.41-.18,2.99-.18,5.1s0,.53.18.7c0,.18.35.35.7.35h.35v.18c0,.18,0,0,0,0h-3.17c-.18,0-.35,0-.35-.18v.7h.02Z"/>
    <path class="st0" d="M157.26,139.47h.35c.18,0,.53-.18.53-.35s.18-.35.35-.7c.18-1.76.53-3.69.53-5.98v-.88s0-.18-.18-.18-.53-.35-.88-.35c-.18,0-.35,0-.35-.35s0-.18.35-.18h2.64c.35,0,0,0,.18,0h0v1.06c.18,0,2.29,5.28,2.29,5.28h0l2.29-5.1c0-.53.18-1.06.35-1.23,0,0,0-.18.18-.18h2.64c.18,0,.35,0,.35.18s0,0,0,0h-.35c-.18,0-.35,0-.53.18-.18,0-.35.18-.53.35v7.04c0,.18.18.53.35.7.18,0,.35.35.7.35h.35v.18c0,.18,0,0,0,0h-4.22c-.35,0-.18,0-.18,0h0s0-.18.35-.35c.35,0,.53,0,.7-.35v-5.98h0l-2.99,6.68h0c-.35-.88-.88-2.11-1.76-4.05-.7-1.58-1.06-2.46-1.06-2.64h0c0,1.41-.18,2.99-.18,5.1s0,.53.18.7c0,.18.35.35.7.35h.35v.18c0,.18,0,0,0,0h-3.17c-.18,0-.35,0-.35-.18v.7h.02Z"/>
    <path class="st0" d="M170.1,139.47v-.18h.35c.53,0,1.06-.53,1.23-1.06.88-1.93,1.76-4.22,2.64-6.51,0-.18,0-.53.18-.7v-.35c.35,0,.7,0,.88-.18,0,0,.35,0,.35-.35,0,0,0-.18.18-.18h0v.35c.35,1.06.7,2.46,1.23,3.87s.88,2.46,1.06,2.99l.35,1.06c0,.35.35.7.53.88.18,0,.53.35.88.35.18,0,.35,0,.35.35s0,0-.35,0h-4.4s0-.18.35-.35c.35,0,.53,0,.7-.18,0,0,.18-.18.18-.35s0,0,0,0c0-.35-.18-1.06-.53-1.93h-2.81s-.18,0-.18.18c-.35.88-.53,1.41-.53,1.76v.18c0,.18,0,.35.18.53,0,0,.35.18.7.35.18,0,.35,0,.35.35s0,0,0,0h-3.52c-.23,0-.35-.06-.35-.18v-.7h0ZM175.91,135.43h0l-1.06-3.34v-.18.18l-1.23,3.34h2.29Z"/>
    <path class="st0" d="M189.45,139.65c-.35,0-.53-.35-.7-.7-.35-.35-.7-.88-1.23-1.41-.35-.53-.7-.88-1.06-1.23-1.41-1.76-2.46-2.81-3.17-3.52h-.18c-.18,0,0,0,0,0v5.28c0,.35,0,.53.35.7,0,.18.53.35.88.35h.35v.18c0,.18,0,0,0,0h-3.52v-.18h.35c.53,0,.7-.53.7-1.23.18-1.93.35-3.87.35-5.8s0-.88-.35-1.06c-.18-.18-.53-.35-1.06-.53h-.35c-.18,0,0,0,0-.18,0,0,0-.18.35-.18h2.64c.53,0,.18,0,.35.18.35.35,1.06,1.23,2.46,2.99,1.41,1.76,2.46,2.99,2.99,3.52,0,0,.18.18.35.18s0,0,0,0v-5.45c0-.18,0-.35-.35-.53-.18,0-.35-.18-.7-.35-.35,0-.53-.18-.53-.35s0,0,0,0h3.52s0,.18-.35.35c-.35,0-.53,0-.7.35,0,0-.18.35-.18.53v7.74c0,.35,0,.53-.35.53s-.35,0-.7-.18h-.18.02Z"/>
    <path class="st0" d="M195.96,139.65h-3.34c-.35,0,0,0-.18,0h0v-.18h.35c.35,0,.7-.18.7-.35,0,0,.18-.35.18-.7v-6.51c0-.35,0-.53-.18-.7,0,0-.35-.18-.7-.35h-.35v-.18c0-.18,0,0,0,0h4.93c1.06,0,1.93.18,2.81.53.7.35,1.41.88,1.76,1.58s.7,1.58.7,2.46-.18,1.76-.7,2.46c-.35.7-1.06,1.41-1.76,1.76-.7.53-1.58.7-2.64.7h-1.58v-.53h0ZM199.65,137.89c.53-.7.88-1.76.88-2.99s0-1.58-.35-2.29-.7-1.23-1.23-1.58-1.06-.53-1.76-.53h-1.41c-.18,0,0,.18,0,.53v6.33c0,.53,0,.88.53,1.06.35.18.7.35,1.23.35,1.06,0,1.76-.35,2.46-1.06l-.35.18Z"/>
    <path class="st0" d="M209.5,139.12c-.88-.35-1.41-1.06-1.93-1.76s-.7-1.58-.7-2.46.18-1.76.7-2.46c.53-.7,1.23-1.41,2.11-1.76.88-.53,1.93-.7,2.99-.7h1.23c.35,0,.88.18,1.41.35.18,0,.35.18.35.35v1.93h-.35c0-.35-.18-.53-.35-.88,0-.18-.18-.35-.35-.53-.53-.35-1.23-.53-2.11-.53s-1.23.18-1.76.53-.88.88-1.23,1.41-.35,1.23-.35,1.93,0,1.58.35,2.29c.35.7.7,1.23,1.23,1.58s1.23.53,1.93.53,1.23,0,1.76-.53c.53-.35.88-.7,1.06-1.41h0v.7c0,.35,0,.53-.18.88v.18h-.18c-.35,0-.7.35-1.23.35h-1.58c-.88,0-1.93-.18-2.64-.53l-.18.53h0Z"/>
    <path class="st0" d="M216.89,139.65h0s0-.18.35-.35c.35,0,.53-.18.7-.35s.18-.35.18-.7v-6.51c0-.35,0-.53-.18-.7,0,0-.35-.18-.7-.35-.18,0-.35,0-.35-.35s0,0,0,0h6.33c.18,0,.35,0,.35.18v.7c.18.53.18.88.18,1.06v.18h0l-.18-.18c0-.18,0-.35-.18-.53,0-.18,0-.35-.18-.35-.35-.35-.53-.35-1.06-.35h-1.93s-.18.18-.18.35v2.81c0,.18,0,.35.35.35h1.23c.18,0,.35,0,.53-.18,0,0,.18-.35.35-.7,0-.18,0-.35.35-.35s0,0,0,0v2.46h0v.35h-.18v-.35c0-.35,0-.53-.35-.53,0,0-.18-.18-.35-.18h-1.76v3.17c0,.35,0,.53.18.7,0,0,.35.18.7.18h1.23c.53,0,.88,0,1.23-.35.18-.18.53-.53.88-1.06,0,0,0-.18.18-.18v.18c0,.35,0,.88-.53,1.76,0,0,0,.18-.35.18h-6.68c-.35,0-.18,0-.18,0h.02Z"/>
    <path class="st0" d="M233.95,139.65c-.35,0-.53-.35-.7-.7-.35-.35-.7-.88-1.23-1.41-.35-.53-.7-.88-1.06-1.23-1.41-1.76-2.46-2.81-3.17-3.52h-.18c-.18,0,0,0,0,0v5.28c0,.35,0,.53.35.7,0,.18.53.35.88.35h.35v.18c0,.18,0,0,0,0h-3.52v-.18h.35c.53,0,.7-.53.7-1.23.18-1.93.35-3.87.35-5.8s0-.88-.35-1.06c-.18-.18-.53-.35-1.06-.53h-.35c-.18,0,0,0,0-.18,0,0,0-.18.35-.18h2.64c.53,0,.18,0,.35.18.35.35,1.06,1.23,2.46,2.99,1.41,1.76,2.46,2.99,2.99,3.52,0,0,.18.18.35.18s0,0,0,0v-5.45c0-.18,0-.35-.35-.53-.18,0-.35-.18-.7-.35-.35,0-.53-.18-.53-.35s0,0,0,0h3.52s0,.18-.35.35c-.35,0-.53,0-.7.35,0,0-.18.35-.18.53v7.74c0,.35,0,.53-.35.53s-.35,0-.7-.18h-.18.02Z"/>
    <path class="st0" d="M239.06,139.65h0s0-.18.35-.35c.35,0,.7-.18.88-.35,0,0,.18-.35.18-.7v-6.86c0-.18,0-.35-.18-.35h-1.23c-.35,0-.53,0-.88.18-.18,0-.53.35-.53.53,0,0-.18.35-.35.53l-.35.18v-.53c0-.35.35-.7.35-.88v-.88c0-.18,0-.35.35-.35s0,0,.18.18,0,.18.18.35c0,0,.18,0,.35.18h5.8c.53,0,.88,0,1.06-.18l.35-.18h.35v1.06c-.18.35-.18.7-.18.88h0v.53h-.35v-.35c0-.35-.18-.53-.53-.7s-.53-.18-.88-.18h-1.58c-.18,0,0,.18-.18.35v6.86c0,.35,0,.53.18.7s.35.18.88.35h.35v.18c0,.18,0,0,0,0h-4.4c-.35,0-.18,0-.18,0v-.2Z"/>
    <path class="st0" d="M246.8,139.65h0s0-.18.35-.35c.35,0,.53-.18.7-.35s.18-.35.18-.7v-6.51c0-.35,0-.53-.18-.7,0,0-.35-.18-.7-.35-.18,0-.35,0-.35-.35s0,0,0,0h6.33c.18,0,.35,0,.35.18v.7c.18.53.18.88.18,1.06v.18h0l-.18-.18c0-.18,0-.35-.18-.53,0-.18,0-.35-.18-.35-.35-.35-.53-.35-1.06-.35h-1.93s-.18.18-.18.35v2.81c0,.18,0,.35.35.35h1.23c.18,0,.35,0,.53-.18,0,0,.18-.35.35-.7,0-.18,0-.35.35-.35s0,0,0,0v2.46h0v.35h-.18v-.35c0-.35,0-.53-.35-.53,0,0-.18-.18-.35-.18h-1.76v3.17c0,.35,0,.53.18.7,0,0,.35.18.7.18h1.23c.53,0,.88,0,1.23-.35.18-.18.53-.53.88-1.06,0,0,0-.18.18-.18v.18c0,.35,0,.88-.53,1.76,0,0,0,.18-.35.18h-6.68c-.35,0-.18,0-.18,0h.02Z"/>
    <path class="st0" d="M262.27,139.65c-.35-.18-.7-.53-1.06-.88-.35-.53-.7-1.06-1.06-1.41s-.53-.88-.88-1.58c0-.18-.35-.35-.53-.53-.18,0-.35,0-.7-.18h0v2.99c0,.35,0,.53.18.7,0,0,.35.35.88.35h.35v.18s0,.18-.35.18h-4.22s0-.18.35-.35c.35,0,.7-.18.7-.35,0,0,.18-.35.18-.7v-7.04s0-.18-.18-.35c0,0-.35,0-.53-.18h-.35v-.18s0-.18.35-.18h3.69c1.06,0,1.93.18,2.64.53s.88,1.06.88,1.76,0,1.06-.53,1.41c-.35.35-.7.7-1.23.88h0c.53.7,1.06,1.41,1.41,1.93s.88,1.06,1.41,1.41c.35.18.53.35.88.53h1.06c.35,0,.18,0,.18.18,0,.35,0,.53-.35.53s-.7.18-1.06.18-1.06,0-1.41-.35l-.7.53h0ZM259.99,134.2c.35-.35.53-.88.53-1.41s0-1.23-.35-1.58-.7-.53-1.41-.53-.35,0-.53.35v3.17c0,1.06,0,.35,0,.35h.53c.53,0,1.06-.18,1.41-.53l-.18.18Z"/>
    <path class="st0" d="M268.96,139.65h0s0-.18.35-.35c.35,0,.7-.18.7-.35,0,0,.18-.35.18-.7v-6.33c0-.35,0-.7-.18-.88,0,0-.35-.35-.7-.35-.18,0-.35,0-.35-.35s0-.18.35-.18h6.51v1.76c0,.53,0,0,0,.18s0,0,0,0h0c0-.53-.35-.88-.53-1.06s-.53-.35-1.06-.35h-1.23c-.18,0-.35,0-.53.18v3.17c0,.18,0,.35.35.35h1.58c.23,0,.41-.06.53-.18.18-.18.18-.35.35-.53h0v2.29h0v.35h-.18c-.18,0,0,0,0-.18s0-.35-.35-.53h-1.93c-.18,0-.35,0-.35.35v2.81c0,.35,0,.53.18.7,0,0,.35.18.88.35h.35v.18s0,.18-.35.18h-4.05l-.53-.53h0Z"/>
    <path class="st0" d="M279.34,139.12c-.7-.35-1.41-.88-1.76-1.76s-.7-1.58-.7-2.46.18-1.76.53-2.46,1.06-1.41,1.76-1.93,1.76-.7,2.81-.7,1.76.18,2.46.53,1.41.88,1.76,1.76c.53.7.7,1.58.7,2.46s-.18,1.76-.53,2.46-1.06,1.41-1.76,1.93-1.76.7-2.81.7-1.76-.18-2.46-.53ZM284.09,138.24c.53-.7.7-1.58.7-2.64s0-1.58-.35-2.46c-.18-.7-.53-1.41-1.06-1.76-.53-.53-1.06-.7-1.76-.7s-1.58.35-2.11,1.06c-.53.7-.7,1.58-.7,2.64s0,1.58.35,2.46c.18.7.53,1.41,1.06,1.76.53.53,1.06.7,1.76.7s1.58-.35,2.11-1.06Z"/>
    <path class="st0" d="M295.17,139.65c-.35-.18-.7-.53-1.06-.88-.35-.53-.7-1.06-1.06-1.41s-.53-.88-.88-1.58c0-.18-.35-.35-.53-.53-.18,0-.35,0-.7-.18h0v2.99c0,.35,0,.53.18.7,0,0,.35.35.88.35h.35v.18s0,.18-.35.18h-4.22s0-.18.35-.35c.35,0,.7-.18.7-.35,0,0,.18-.35.18-.7v-7.04s0-.18-.18-.35c0,0-.35,0-.53-.18h-.35v-.18s0-.18.35-.18h3.69c1.06,0,1.93.18,2.64.53s.88,1.06.88,1.76,0,1.06-.53,1.41c-.35.35-.7.7-1.23.88h0c.53.7,1.06,1.41,1.41,1.93s.88,1.06,1.41,1.41c.35.18.53.35.88.53h1.06c.35,0,.18,0,.18.18,0,.35,0,.53-.35.53s-.7.18-1.06.18-1.06,0-1.41-.35l-.7.53h0ZM292.71,134.2c.35-.35.53-.88.53-1.41s0-1.23-.35-1.58-.7-.53-1.41-.53-.35,0-.53.35v3.17c0,1.06,0,.35,0,.35h.53c.53,0,1.06-.18,1.41-.53l-.18.18Z"/>
    <path class="st0" d="M305.19,139.65h-3.34c-.35,0,0,0-.18,0h0v-.18h.35c.35,0,.7-.18.7-.35,0,0,.18-.35.18-.7v-6.51c0-.35,0-.53-.18-.7l-.7-.35h-.35v-.18c0-.18,0,0,0,0h4.93c1.06,0,1.93.18,2.81.53.7.35,1.41.88,1.76,1.58s.7,1.58.7,2.46-.18,1.76-.7,2.46c-.35.7-1.06,1.41-1.76,1.76-.7.53-1.58.7-2.64.7h-1.58v-.53h0ZM308.89,137.89c.53-.7.88-1.76.88-2.99s0-1.58-.35-2.29-.7-1.23-1.23-1.58-1.06-.53-1.76-.53h-1.41c-.18,0,0,.18,0,.53v6.33c0,.53,0,.88.53,1.06.35.18.7.35,1.23.35,1.06,0,1.76-.35,2.46-1.06l-.35.18h0Z"/>
    <path class="st0" d="M314.16,139.65c-.35,0-.7-.35-.88-.7s-.35-.7-.35-1.06c0-.7.18-1.23.53-1.76s1.06-.88,1.76-1.23h.35v-.35l-.35-.35c-.18-.18-.35-.35-.53-.7,0-.18-.18-.53-.18-.7s0-.7.35-.88c.18-.35.53-.53.88-.7.35,0,.7-.18,1.23-.18s.7,0,1.06.18.53.35.7.53c0,.18.18.53.18.88s0,.7-.35,1.06c-.18.18-.7.53-1.23.7h-.35l.18.35.35.53c.53.53,1.06,1.06,1.23,1.41v.35c.18,0,.53-.18.53-.18.35-.35.53-.7.7-1.06.18-.35.35-.53.35-.7v-.35s-.18,0-.35-.18c0,0-.18,0-.18-.18s0-.18.35-.18h2.99v.18h-.35c-.35,0-.88.35-1.23.7l-.35.35c-1.23,1.23-1.93,1.76-1.93,1.76l.35.35c.35.53.7.88.88,1.06.35.18.53.35.88.35s.7,0,1.06-.18h0s0,.35-.35.53c-.18.18-.53.35-.88.53s-.7.18-1.06.18c-.53,0-.88,0-1.23-.35s-.7-.53-1.06-1.06v-.35h-.35c-.53.53-.88.88-1.41,1.23s-1.06.35-1.58.35-.88,0-1.23-.18h.88-.01ZM317.86,137.89h0l-.18-.35c-.35-.35-.88-1.06-1.58-1.76l-.53-.53h0c0-.18-.35,0-.35,0-.7.35-1.06.88-1.06,1.76s0,.88.53,1.23c.35.35.7.53,1.23.53s1.23-.18,1.76-.7l.18-.18h0ZM316.98,133.85s.35-.35.35-.53v-.88c0-.35,0-.53-.18-.88,0-.18-.35-.35-.53-.35s-.35,0-.53.18c0,0-.18.35-.18.53v.88c0,.18.35.53.53.7l.35.35h.19Z"/>
    <path class="st0" d="M327.53,139.65h-3.34c-.35,0,0,0-.18,0h0v-.18h.35c.35,0,.7-.18.7-.35,0,0,.18-.35.18-.7v-6.51c0-.35,0-.53-.18-.7l-.7-.35h-.35v-.18c0-.18,0,0,0,0h4.93c1.06,0,1.93.18,2.81.53.7.35,1.41.88,1.76,1.58s.7,1.58.7,2.46-.18,1.76-.7,2.46c-.35.7-1.06,1.41-1.76,1.76-.7.53-1.58.7-2.64.7h-1.58v-.53h0ZM331.23,137.89c.53-.7.88-1.76.88-2.99s0-1.58-.35-2.29-.7-1.23-1.23-1.58-1.06-.53-1.76-.53h-1.41c-.18,0,0,.18,0,.53v6.33c0,.53,0,.88.53,1.06.35.18.7.35,1.23.35,1.06,0,1.76-.35,2.46-1.06l-.35.18h0Z"/>
  </g>
</svg>