<?xml version="1.0" encoding="UTF-8"?>
<svg id="Layer_3" data-name="Layer 3" xmlns="http://www.w3.org/2000/svg" viewBox="0 0 14263.2 9793.83">
  <defs>
    <style>
      .cls-1 {
        fill: #be883b;
      }
    </style>
  </defs>
  <path class="cls-1" d="M9496.95,6160.05c-20.13-588.63,998.29-618.01,673.32-657.6-146.41-17.48-277.32-41.29-389.67-20.74-810.97-472.94-1971.24-294.16-2894.11-112.89-1320.88,259.8-2540.85,762.46-3851.04,1046.54C1302.17,6790.55,15.34,6654.5,15.34,6654.5c1096.16-55.78,2164.84-250.47,3097.65-566.71,2439.61-827.55,3740.65-3281.34,1801.89-4904.76,804.4,149.4,1358.24,1015.32,1328.58,1621.45-8.53,173.21,286,183.08,366.29,52.74,447.02-97.94,699.21,273.42,653.52,621.07-92.97,708.32-1092.2,1258.15-1864.03,1445.13-160.58,83.34-38.12,284.08,144.04,238.92,2311.39-581.66,4683.94-2227.35,7236.09-1192.69-287.18-7.59-1447.67,156.81-1507.38,607.3,8.07,96.05,226.67,110.43,315.88,111.66,1042.75,15.78,1622.09,812.57,2675.32,884.82-296.88,140.42-594.15,280.54-924.88,379.52-912.39,252.25-1396.6-1.84-2106.06-420.33-66.28-38.84-239.97-71.03-187.33,60.15,125.2,315.03,219.74,668.86-31.67,954.39-461.83,566.67-1566.13,274.21-1516.29-387.1h0Z"/>
  <path class="cls-1" d="M948.21,4321.02h0c596.17-404.73,1787.49-645.71,2260.02,21.96l14.02,33.23c321.43-235.37,319.47-758.55-173.25-835.13,668.94-293.07,931.62-742.82,714.41-1330.8-111.75-303.15-343.36-547.16-646.34-724.09,241.26,712.17-381.37,1386.64-1073.25,1788.26-525.12,304.38-1049.13,536.5-1441.94,964.9C300.45,4568.76,128.78,4910.71,0,5274.62c233.63-369.49,576.98-702.14,948.21-953.6h0Z"/>
</svg>