<?xml version="1.0" encoding="UTF-8"?>
<svg id="Layer_1" xmlns="http://www.w3.org/2000/svg" version="1.1" viewBox="0 0 52.71 54.87">
  <!-- Generator: Adobe Illustrator 29.8.1, SVG Export Plug-In . SVG Version: 2.1.1 Build 2)  -->
  <defs>
    <style>
      .st0 {
        fill: #d9ca89;
      }
    </style>
  </defs>
  <path class="st0" d="M46.63,27.43c0-1.36-.1-2.65-.28-3.89l6.36-5.32-5.19-9-7.56,2.76c-.85-.66-1.76-1.25-2.76-1.75-1.27-.65-2.65-1.15-4.12-1.52l-1.53-8.71h-10.39l-1.52,8.69c-2.63.67-4.92,1.76-6.88,3.29l-7.56-2.76L0,18.22l6.36,5.32c-.18,1.24-.28,2.53-.28,3.89s.1,2.66.28,3.9l-6.36,5.32,5.2,9,7.56-2.76c1.96,1.52,4.25,2.62,6.88,3.29l1.52,8.69h10.39l1.53-8.71c2.62-.66,4.9-1.76,6.85-3.28l7.59,2.77,5.19-9-6.36-5.33c.18-1.23.28-2.52.28-3.89ZM31.58,32.47c-1.27,1.22-3.01,1.82-5.23,1.82s-3.96-.6-5.22-1.82c-1.27-1.21-1.9-2.89-1.9-5.04s.63-3.82,1.9-5.04c1.26-1.21,3-1.81,5.22-1.81,1.47,0,2.75.27,3.82.81,1.06.54,1.88,1.33,2.46,2.36.57,1.04.85,2.27.85,3.68,0,2.15-.63,3.83-1.9,5.04Z"/>
</svg>